<svg width="103" height="40" viewBox="0 0 103 40" fill="none" xmlns="http://www.w3.org/2000/svg">
<path d="M46.2153 16.1806H43.8479V16.5132C43.8479 17.2616 43.6342 17.877 43.2232 18.3759C42.8122 18.8749 42.171 19.1243 41.2997 19.1243C40.4448 19.1243 39.7872 18.8582 39.294 18.326C38.8172 17.7938 38.5706 17.0787 38.5706 16.1806V13.0207C38.5706 12.1226 38.8172 11.3909 39.294 10.8753C39.7708 10.3431 40.4448 10.077 41.2997 10.077C42.1546 10.077 42.7958 10.3265 43.2232 10.8088C43.6342 11.2911 43.8479 11.923 43.8479 12.6881V12.871H46.2153V12.7546C46.2153 11.2412 45.7879 10.0604 44.933 9.19554C44.0781 8.33072 42.878 7.89832 41.3161 7.89832C39.7379 7.89832 38.4884 8.34736 37.5678 9.22881C36.6471 10.1103 36.1868 11.3909 36.1868 13.0373V16.1307C36.1868 17.7772 36.6471 19.0578 37.5678 19.9393C38.4884 20.8207 39.7379 21.2697 41.3161 21.2697C42.878 21.2697 44.0945 20.8373 44.933 19.9725C45.7714 19.1077 46.2153 17.9269 46.2153 16.4135V16.1806Z" fill="white"~/>
<path d="M50.3254 18.2096H54.8629L55.5534 21.0369H58.0195L54.6821 8.18103H50.5063L47.1525 21.0369H49.6185L50.3254 18.2096ZM52.4298 9.69446H52.7586L54.304 15.9644H50.8844L52.4298 9.69446Z" fill="white"~/>
<path d="M64.2667 7.91492C62.6885 7.91492 61.439 8.36396 60.5184 9.24541C59.5977 10.1269 59.1374 11.4075 59.1374 13.0539V16.1473C59.1374 17.7938 59.5977 19.0744 60.5184 19.9559C61.439 20.8373 62.6885 21.2863 64.2667 21.2863C65.8286 21.2863 67.0451 20.8539 67.8836 19.9891C68.722 19.1243 69.1659 17.9435 69.1659 16.4301V16.1806H66.7985V16.5132C66.7985 17.2616 66.5848 17.877 66.1738 18.3759C65.7628 18.8748 65.1216 19.1243 64.2503 19.1243C63.3954 19.1243 62.7378 18.8582 62.2446 18.326C61.7678 17.7938 61.5212 17.0787 61.5212 16.1806V13.0207C61.5212 12.1226 61.7678 11.3908 62.2446 10.8753C62.7214 10.3431 63.3954 10.077 64.2503 10.077C65.1052 10.077 65.7464 10.3264 66.1738 10.8087C66.5848 11.291 66.7985 11.923 66.7985 12.6881V12.871H69.1659V12.7546C69.1659 11.2411 68.7385 10.0603 67.8836 9.19551C67.0287 8.33069 65.8286 7.91492 64.2667 7.91492Z" fill="white"~/>
<path d="M70.1195 10.3763H73.8186V21.0369H76.2188V10.3763H79.9343V8.18103H70.1195V10.3763Z" fill="white"~/>
<path d="M91.4425 8.18103H89.0422V16.5964C89.0422 17.378 88.8285 17.9934 88.3846 18.4591C87.9407 18.9081 87.2995 19.1409 86.4611 19.1409C85.6226 19.1409 84.9815 18.9081 84.5376 18.4591C84.0937 18.01 83.88 17.3947 83.88 16.5964V8.18103H81.4797V16.5299C81.4797 17.5111 81.677 18.3593 82.0715 19.0744C82.4661 19.7896 83.0415 20.3384 83.7813 20.7209C84.5211 21.1034 85.4253 21.303 86.4611 21.303C87.4968 21.303 88.401 21.1034 89.1409 20.7209C89.8807 20.3384 90.4561 19.7896 90.8507 19.0744C91.2452 18.3593 91.4425 17.5111 91.4425 16.5299V8.18103Z" fill="white"~/>
<path d="M102.425 15.3989C102.046 14.9 101.52 14.5008 100.846 14.1849C100.172 13.8855 99.3832 13.6194 98.479 13.4365L98.068 13.3367C97.5583 13.2202 97.1473 13.1038 96.8185 12.9541C96.4897 12.8045 96.2431 12.6215 96.0787 12.4053C95.9143 12.1891 95.8321 11.923 95.8321 11.5904C95.8321 11.1081 96.0129 10.7422 96.3418 10.4595C96.687 10.1768 97.2295 10.0437 97.9529 10.0437C98.4297 10.0437 98.8571 10.1102 99.2023 10.2599C99.5476 10.393 99.8271 10.6258 100.008 10.9252C100.189 11.2245 100.287 11.6237 100.287 12.106V12.6548H102.655V12.106C102.655 11.1746 102.458 10.393 102.047 9.7776C101.636 9.16225 101.077 8.69658 100.37 8.38059C99.6627 8.0646 98.8571 7.91492 97.9529 7.91492C97.0487 7.91492 96.2596 8.0646 95.5855 8.36396C94.9115 8.66332 94.3854 9.09573 94.0237 9.64455C93.662 10.21 93.4647 10.8753 93.4647 11.6569C93.4647 12.4386 93.6291 13.0706 93.9579 13.5695C94.2867 14.0518 94.7635 14.451 95.3882 14.7503C96.013 15.0497 96.7528 15.2991 97.6241 15.4987L98.0351 15.5985C98.5776 15.7149 99.038 15.848 99.4325 15.9976C99.8106 16.1307 100.107 16.3136 100.304 16.5465C100.501 16.7627 100.6 17.062 100.6 17.4113C100.6 17.9269 100.402 18.3426 99.9915 18.6753C99.5805 19.0079 98.9722 19.1742 98.1502 19.1742C97.3446 19.1742 96.7034 18.9746 96.2267 18.5921C95.7499 18.2096 95.5197 17.6275 95.5197 16.8625V16.3303H93.1852V16.8458C93.1852 17.7772 93.399 18.5755 93.8264 19.2407C94.2539 19.906 94.8293 20.4049 95.5855 20.7708C96.3418 21.12 97.1967 21.303 98.1831 21.303C99.1695 21.303 100.008 21.1367 100.731 20.804C101.455 20.4714 102.014 20.0057 102.408 19.407C102.803 18.8083 103 18.1264 103 17.3448C103 16.5465 102.803 15.8979 102.425 15.3989Z" fill="white"~/>
<path d="M1.44861 29.8847C1.44861 35.3064 5.80527 39.7137 11.1648 39.7137H14.5186C19.8781 39.7137 24.2348 35.3064 24.2348 29.8847V24.2966H1.44861V29.8847ZM3.75024 26.6083H21.9332V29.8847C21.9332 34.0258 18.6122 37.3853 14.5186 37.3853H11.1648C7.07117 37.3853 3.75024 34.0258 3.75024 29.8847V26.6083Z" fill="white"~/>
<path d="M21.9331 13.0041L21.4564 12.9043V12.555C21.4564 10.9252 21.0125 9.3951 20.2398 8.09787L20.5686 7.74862L22.0811 6.10214L22.525 5.60321L21.9167 4.75502L21.3084 5.03775L19.2698 5.96909L18.7108 6.21856C17.4449 5.02112 15.8174 4.18956 14.0254 3.94009L13.9103 3.37463L13.4993 1.36227L13.3513 0.697021H12.332L12.1841 1.36227L11.7566 3.358L11.6415 3.92346C9.8331 4.18956 8.20552 5.02112 6.92318 6.23519L6.15048 5.90257L4.29274 5.10427L3.68445 4.83817L3.0926 5.66973L3.53649 6.16866L4.88459 7.69873L5.3778 8.24756C4.65443 9.52815 4.24342 10.9917 4.24342 12.555V12.8876L3.71733 12.9874L1.53078 13.4365L0.873169 13.5695V14.6173L1.53078 14.7503L3.71733 15.1994L4.24342 15.2992V20.4049H6.52862V12.555C6.52862 9.02922 9.37278 6.15203 12.8581 6.15203C16.3434 6.15203 19.1876 9.02922 19.1876 12.555V20.4049H21.4728V15.2992L21.9496 15.1994L24.1361 14.7503L24.7937 14.6173V13.5695L24.1361 13.4365L21.9331 13.0041Z" fill="white"~/>
<path d="M49.5856 31.4147H49.487L48.4019 27.5397H47.5306L46.462 31.4147H46.3469L45.5249 27.5397H44.9988L45.9359 31.764H46.8401L47.9251 27.8889H48.0238L49.0924 31.764H49.9966L50.9501 27.5397H50.4076L49.5856 31.4147Z" fill="white"~/>
<path d="M54.9945 27.6727C54.6986 27.5064 54.3533 27.4232 53.9587 27.4232C53.5642 27.4232 53.2025 27.5064 52.8901 27.6893C52.5778 27.8723 52.3312 28.1218 52.1503 28.4544C51.9695 28.787 51.8873 29.1695 51.8873 29.6019V29.7017C51.8873 30.1341 51.9695 30.5166 52.1503 30.8493C52.3312 31.1819 52.5778 31.4314 52.8901 31.6143C53.2025 31.7972 53.5806 31.8804 54.0081 31.8804C54.3862 31.8804 54.6821 31.8139 54.9287 31.6975C55.1753 31.581 55.3726 31.4314 55.5206 31.2484C55.6685 31.0655 55.7836 30.8825 55.8822 30.683L55.4219 30.4667C55.3068 30.7328 55.1424 30.9491 54.9287 31.132C54.715 31.3149 54.4191 31.3981 54.0245 31.3981C53.5642 31.3981 53.1861 31.2484 52.8901 30.9657C52.5942 30.683 52.4298 30.2672 52.4134 29.735H55.9809V29.4522C55.9809 29.0198 55.8987 28.654 55.7178 28.338C55.537 28.022 55.2904 27.839 54.9945 27.6727ZM52.4134 29.3192C52.4791 28.8535 52.6435 28.5043 52.923 28.2548C53.2025 28.0053 53.5477 27.8889 53.9587 27.8889C54.3862 27.8889 54.7314 28.0053 54.9945 28.2548C55.2575 28.5043 55.4055 28.8535 55.4384 29.3192H52.4134Z" fill="white"~/>
<path d="M60.502 27.6893C60.1896 27.5064 59.8608 27.4232 59.4827 27.4232C59.1868 27.4232 58.9237 27.4731 58.71 27.5563C58.4963 27.6394 58.3154 27.7559 58.1839 27.8723C58.0524 28.0053 57.9373 28.1384 57.8715 28.2881H57.7729V25.677H57.2632V31.764H57.7565V30.9823H57.8551C57.9702 31.2151 58.1675 31.4147 58.4141 31.5977C58.6771 31.7806 59.0224 31.8638 59.4827 31.8638C59.8608 31.8638 60.1896 31.7806 60.502 31.5977C60.7979 31.4147 61.0445 31.1652 61.2254 30.8326C61.4062 30.5 61.4884 30.1175 61.4884 29.6684V29.5687C61.4884 29.1196 61.4062 28.7371 61.2254 28.4045C61.0445 28.1051 60.7979 27.8557 60.502 27.6893ZM60.9459 29.6851C60.9459 30.2173 60.7979 30.6497 60.502 30.949C60.2061 31.2484 59.8279 31.4147 59.3512 31.4147C58.8744 31.4147 58.4963 31.265 58.2003 30.949C57.9044 30.6497 57.7565 30.2173 57.7565 29.6851V29.6185C57.7565 29.0864 57.9044 28.6539 58.2003 28.3546C58.4963 28.0552 58.8908 27.8889 59.3512 27.8889C59.8279 27.8889 60.2061 28.0386 60.502 28.3546C60.7979 28.6706 60.9459 29.0864 60.9459 29.6185V29.6851Z" fill="white"~/>
<path d="M68.3275 31.0488V28.9866C68.3275 28.4876 68.1796 28.1051 67.9001 27.8224C67.6041 27.5397 67.2096 27.4066 66.667 27.4066C66.3218 27.4066 66.0259 27.4731 65.7793 27.5896C65.5327 27.706 65.3354 27.8723 65.1874 28.0719C65.0394 28.2714 64.9244 28.5043 64.8586 28.7537L65.3518 28.9034C65.434 28.6041 65.5655 28.3546 65.7793 28.1716C65.993 27.9887 66.2889 27.9055 66.6506 27.9055C67.0287 27.9055 67.3082 28.0053 67.5055 28.1883C67.7028 28.3879 67.8014 28.654 67.8014 28.9866V29.3192H66.2725C65.993 29.3192 65.7299 29.3691 65.4833 29.4522C65.2532 29.552 65.0559 29.6851 64.9244 29.868C64.7928 30.051 64.7106 30.2838 64.7106 30.5665C64.7106 30.8493 64.7764 31.0821 64.9244 31.2817C65.0559 31.4812 65.2532 31.6309 65.4833 31.7307C65.7135 31.8305 65.993 31.8804 66.2725 31.8804C66.552 31.8804 66.7986 31.8471 66.9794 31.764C67.1767 31.6808 67.3247 31.5977 67.4397 31.4646C67.5548 31.3482 67.6535 31.2151 67.7357 31.0821H67.8179V31.1486C67.8179 31.3316 67.8672 31.4812 67.9658 31.581C68.0645 31.6808 68.2124 31.7473 68.3933 31.7473H68.9358V31.2983H68.5248C68.4097 31.3149 68.3275 31.2318 68.3275 31.0488ZM67.8179 29.868C67.8179 30.367 67.6864 30.7495 67.4069 31.0156C67.1274 31.2817 66.7821 31.4147 66.3382 31.4147C66.0259 31.4147 65.7628 31.3482 65.5655 31.1985C65.3683 31.0488 65.2532 30.8326 65.2532 30.5665C65.2532 30.3004 65.3518 30.0842 65.5491 29.9678C65.7464 29.8348 65.993 29.7682 66.2889 29.7682H67.8179V29.868Z" fill="white"~/>
<path d="M73.3747 28.3213H73.276C73.1609 28.0885 72.9636 27.8889 72.717 27.706C72.454 27.523 72.1087 27.4399 71.6484 27.4399C71.2703 27.4399 70.9415 27.523 70.6291 27.706C70.3332 27.8723 70.0866 28.1218 69.9058 28.4377C69.7249 28.7537 69.6427 29.1363 69.6427 29.5853V29.6851C69.6427 30.1341 69.7249 30.5 69.9058 30.8326C70.0866 31.1486 70.3332 31.3981 70.6291 31.581C70.9415 31.7473 71.2703 31.8471 71.6484 31.8471C71.9608 31.8471 72.2238 31.7972 72.4376 31.7141C72.6513 31.6309 72.8157 31.5145 72.9636 31.3815C73.0952 31.2484 73.2103 31.1154 73.276 30.9657H73.3747V32.7785C73.3747 32.9448 73.2925 33.0446 73.1116 33.0446H70.3332V33.5102H73.1938C73.424 33.5102 73.5884 33.4603 73.687 33.3439C73.8021 33.2275 73.8514 33.0612 73.8514 32.8616V27.5563H73.3747V28.3213ZM73.3582 29.6518C73.3582 30.184 73.2103 30.5998 72.9143 30.8992C72.6184 31.1985 72.2403 31.3482 71.7635 31.3482C71.2867 31.3482 70.9086 31.1985 70.6127 30.8992C70.3168 30.5998 70.1688 30.184 70.1688 29.6518V29.5853C70.1688 29.0531 70.3168 28.6373 70.6127 28.338C70.9086 28.0386 71.3032 27.8889 71.7635 27.8889C72.2403 27.8889 72.6184 28.0386 72.9143 28.338C73.2103 28.6373 73.3582 29.0531 73.3582 29.5853V29.6518Z" fill="white"~/>
<path d="M78.2739 27.6727C77.978 27.5064 77.6327 27.4232 77.2382 27.4232C76.8436 27.4232 76.4819 27.5064 76.1695 27.6893C75.8572 27.8723 75.6106 28.1218 75.4297 28.4544C75.2489 28.787 75.1667 29.1695 75.1667 29.6019V29.7017C75.1667 30.1341 75.2489 30.5166 75.4297 30.8493C75.6106 31.1819 75.8572 31.4314 76.1695 31.6143C76.4819 31.7972 76.86 31.8804 77.2875 31.8804C77.6656 31.8804 77.9615 31.8139 78.2081 31.6975C78.4547 31.581 78.652 31.4314 78.8 31.2484C78.948 31.0655 79.063 30.8825 79.1617 30.683L78.7014 30.4667C78.5863 30.7328 78.4219 30.9491 78.2081 31.132C77.9944 31.3149 77.6985 31.3981 77.3039 31.3981C76.8436 31.3981 76.4655 31.2484 76.1695 30.9657C75.8736 30.683 75.7092 30.2672 75.6928 29.735H79.2603V29.4522C79.2603 29.0198 79.1781 28.654 78.9973 28.338C78.8164 28.022 78.5698 27.839 78.2739 27.6727ZM75.6928 29.3192C75.7585 28.8535 75.9229 28.5043 76.2024 28.2548C76.4819 28.0053 76.8272 27.8889 77.2382 27.8889C77.6656 27.8889 78.0109 28.0053 78.2739 28.2548C78.5369 28.5043 78.6849 28.8535 78.7178 29.3192H75.6928Z" fill="white"~/>
<path d="M83.4855 27.6395C83.2389 27.5064 82.9594 27.4399 82.647 27.4399C82.2031 27.4399 81.8578 27.523 81.6277 27.706C81.3975 27.8889 81.2167 28.0885 81.118 28.3047H81.0194V27.523H80.5262V31.7473H81.0358V29.6352C81.0358 29.0531 81.1838 28.6207 81.4633 28.338C81.7428 28.0552 82.1045 27.9056 82.5319 27.9056C82.91 27.9056 83.2224 28.0053 83.4526 28.2049C83.6828 28.4045 83.7978 28.7371 83.7978 29.2028V31.7473H84.3075V29.1695C84.3075 28.787 84.2253 28.4544 84.0773 28.2049C83.9293 27.9721 83.7321 27.7725 83.4855 27.6395Z" fill="white"~/>
<path d="M88.7464 31.0655C88.4998 31.2983 88.1545 31.4314 87.6942 31.4314C87.3982 31.4314 87.1188 31.3648 86.8722 31.2151C86.6256 31.0655 86.4447 30.8659 86.2967 30.6164C86.1488 30.3503 86.083 30.051 86.083 29.7017V29.6352C86.083 29.2859 86.1488 28.9699 86.2967 28.7205C86.4447 28.4544 86.6256 28.2548 86.8722 28.1218C87.1188 27.9721 87.3818 27.9056 87.6942 27.9056C88.0065 27.9056 88.2532 27.9554 88.4669 28.0719C88.6806 28.1883 88.8286 28.338 88.9436 28.5209C89.0587 28.7038 89.1245 28.9201 89.1574 29.1363L89.667 29.0365C89.6341 28.7704 89.5355 28.5043 89.3711 28.2548C89.2067 28.0053 88.993 27.8058 88.7135 27.6561C88.434 27.5064 88.0887 27.4232 87.6942 27.4232C87.2832 27.4232 86.9215 27.5064 86.6091 27.6893C86.2967 27.8723 86.0337 28.1218 85.8529 28.4544C85.672 28.787 85.5734 29.1695 85.5734 29.6186V29.7017C85.5734 30.1508 85.672 30.5333 85.8529 30.8659C86.0337 31.1985 86.2803 31.448 86.6091 31.6309C86.9215 31.8139 87.2832 31.897 87.6942 31.897C88.0887 31.897 88.434 31.8139 88.7135 31.6642C88.993 31.5145 89.2067 31.3149 89.3711 31.0655C89.5355 30.816 89.6341 30.5665 89.6999 30.2838L89.1902 30.184C89.1245 30.5333 88.9765 30.816 88.7464 31.0655Z" fill="white"~/>
<path d="M94.188 29.6685C94.188 30.2505 94.0401 30.683 93.7606 30.9657C93.4811 31.2484 93.1194 31.3981 92.692 31.3981C92.3139 31.3981 92.0015 31.2983 91.7713 31.0987C91.5412 30.8992 91.4261 30.5665 91.4261 30.1009V27.5563H90.9164V30.1341C90.9164 30.5166 90.9986 30.8493 91.1466 31.0987C91.2946 31.3482 91.5083 31.5478 91.7549 31.6808C92.0179 31.8139 92.281 31.8804 92.5933 31.8804C92.9057 31.8804 93.1359 31.8471 93.3331 31.764C93.5304 31.6808 93.6948 31.581 93.8099 31.4646C93.9414 31.3316 94.0236 31.2152 94.1058 31.0655H94.2045V32.8117C94.2045 32.9781 94.1223 33.0778 93.9414 33.0778H91.4918V33.5435H94.0401C94.2702 33.5435 94.4346 33.4936 94.5497 33.3772C94.6648 33.2608 94.7141 33.0945 94.7141 32.8949V27.5896H94.2045V29.6685H94.188Z" fill="white"~/>
<path d="M36.9431 29.8181L41.2011 30.0676V28.8036L36.9431 29.0531V29.8181Z" fill="white"~/>
<path d="M98.0844 30.0676L102.342 29.8181V29.0531L98.0844 28.8036V30.0676Z" fill="white"~/>
</svg>
