<svg width="182" height="190" viewBox="0 0 182 190" fill="none" xmlns="http://www.w3.org/2000/svg">
<path d="M175.914 95.5607L171.478 93.386C171.51 90.2526 171.462 87.4062 171.478 84.7266C171.478 70.9399 167.941 57.3974 161.237 45.4219C162.804 43.1621 162.881 40.1468 161.292 37.7684C155.399 28.9504 148.006 21.3917 139.318 15.3019C133.628 11.3134 127.465 8.03699 121.002 5.56299C119.569 5.01432 117.963 5.73155 117.414 7.16453C116.865 8.59788 117.583 10.2042 119.016 10.7529C125.053 13.0639 130.811 16.1255 136.128 19.8528C144.251 25.5462 151.163 32.6129 156.671 40.8562C157.019 41.376 156.937 42.0606 156.478 42.4841C156.057 42.8175 146.778 51.5469 146.217 51.8866C145.934 52.0278 145.662 52.0244 145.502 52.003C145.275 51.9722 144.853 51.8518 144.565 51.3902C140.917 45.5268 136.363 40.3209 131.028 35.9164C119.727 26.5865 105.44 21.448 90.7972 21.448C75.4 21.448 60.5516 27.0651 48.9862 37.2649C44.4339 41.2793 40.4861 45.9124 37.2519 51.0346C36.9848 51.4573 36.5803 51.5614 36.3624 51.5854C36.1346 51.6114 35.6967 51.5977 35.3203 51.2209L25.6729 41.5731C25.2431 41.143 25.1827 40.4654 25.5295 39.9612C29.6199 34.017 34.5023 28.6511 40.0412 24.0124C54.2539 12.1114 72.2796 5.55706 90.7975 5.55706C95.8908 5.55706 100.987 6.04608 105.946 7.01079C107.452 7.30383 108.911 6.32023 109.204 4.8139C109.497 3.30756 108.513 1.84902 107.007 1.55598C101.7 0.523475 96.246 0 90.7975 0C70.9774 0 51.6847 7.01523 36.4736 19.7528C30.5494 24.7141 25.3269 30.4538 20.9516 36.8118C19.276 39.2473 19.3797 42.4411 21.1013 44.751C18.342 49.4841 16.0629 54.4729 14.3194 59.6117C13.8263 61.0647 14.6051 62.6425 16.0581 63.1356C16.3541 63.236 16.6549 63.2834 16.9509 63.2834C18.1086 63.2834 19.1893 62.554 19.582 61.397C21.0416 57.0947 22.9095 52.9062 25.139 48.8984L31.0725 54.8322C26.3601 64.2626 23.8761 74.7617 23.8761 85.3512V143.198L8.53231 135.675C6.72478 134.789 5.55669 132.916 5.55669 130.903V105.323C5.55669 103.309 6.72478 101.436 8.53231 100.55C9.47034 100.049 11.3631 99.2232 12.9294 98.3933C14.6225 97.4853 15.6742 95.727 15.6742 93.8046V85.3846C15.6542 81.8092 15.901 78.2004 16.4074 74.6591C16.6249 73.1398 15.5694 71.7324 14.0505 71.5153C12.5334 71.2974 11.1241 72.3533 10.9067 73.8722C10.3613 77.6836 10.0961 81.5673 10.1172 85.4002V93.5946C9.42218 93.9784 7.11341 95.0217 5.98495 95.6107C2.34545 97.4434 0 101.243 0 105.323V130.903C0 135.02 2.38917 138.852 6.08609 140.665L24.62 149.752C26.5679 155.663 32.1391 159.943 38.6945 159.943C46.8653 159.943 53.5126 153.296 53.5126 145.126V95.1472C53.5126 86.9765 46.8653 80.3291 38.6945 80.3291C35.2055 80.3291 31.9964 81.5443 29.4617 83.5697C29.724 74.3849 32.0083 65.3247 36.1246 57.1488C36.408 57.1521 36.6929 57.1403 36.9793 57.108C39.0372 56.8784 40.8496 55.7462 41.9514 54.0009C44.9029 49.3259 48.5068 45.097 52.6624 41.4323C63.2119 32.1287 76.7552 27.0047 90.7975 27.0047C104.152 27.0047 117.183 31.6912 127.49 40.2013C132.36 44.222 136.518 48.9736 139.847 54.3251C140.935 56.0737 142.725 57.2344 144.757 57.5093C145.063 57.5508 145.37 57.5711 145.675 57.5711C145.809 57.5711 145.942 57.5604 146.075 57.5526C150.064 65.6204 152.28 74.5387 152.539 83.5697C150.004 81.5439 146.795 80.3288 143.305 80.3288C135.135 80.3288 128.487 86.9761 128.487 95.1469V103.48C128.487 105.014 129.731 106.258 131.266 106.258C132.8 106.258 134.044 105.014 134.044 103.48V95.1469C134.044 90.0403 138.199 85.8858 143.305 85.8858C148.412 85.8858 152.566 90.0403 152.566 95.1469V145.125C152.566 150.231 148.412 154.386 143.305 154.386C138.199 154.386 134.044 150.231 134.044 145.125V117.49C134.044 115.955 132.8 114.711 131.266 114.711C129.731 114.711 128.487 115.955 128.487 117.49V145.125C128.487 153.296 135.135 159.943 143.305 159.943C146.808 159.943 150.027 158.719 152.566 156.68V163.299C152.566 165.298 150.94 166.925 148.941 166.925H115.65C114.784 164.362 112.362 162.509 109.51 162.509H88.5006C84.9259 162.509 82.0174 165.417 82.0174 168.992V183.198C82.0174 186.772 84.9259 189.681 88.5006 189.681H109.51C112.352 189.681 114.767 187.84 115.64 185.291H133.68C135.214 185.291 136.458 184.047 136.458 182.512C136.458 180.978 135.214 179.734 133.68 179.734H115.994V172.482H148.941C154.004 172.482 158.124 168.363 158.124 163.299V149.387L165.375 145.832V170.504C165.375 175.593 161.235 179.734 156.146 179.734H147.54C146.006 179.734 144.762 180.978 144.762 182.512C144.762 184.047 146.006 185.291 147.54 185.291H156.146C164.299 185.291 170.932 178.658 170.932 170.504V143.107L175.914 140.665C179.611 138.852 182 135.021 182 130.903V105.323C182 101.205 179.611 97.3734 175.914 95.5607ZM38.6942 85.8866C43.8007 85.8866 47.9552 90.041 47.9552 95.1476V145.126C47.9552 150.232 43.8007 154.387 38.6942 154.387C33.5876 154.387 29.4332 150.232 29.4332 145.126V95.1472C29.4332 90.0407 33.5876 85.8866 38.6942 85.8866ZM87.5741 183.198V168.993C87.5741 168.482 87.9897 168.067 88.5003 168.067H96.2264V184.124H88.5003C87.9897 184.124 87.5741 183.708 87.5741 183.198ZM110.436 183.198C110.436 183.708 110.021 184.124 109.51 184.124H101.784V168.067H109.51C110.021 168.067 110.436 168.482 110.436 168.993V183.198ZM176.443 130.903C176.443 132.916 175.275 134.789 173.467 135.676L158.124 143.198C158.124 136.112 158.124 91.1224 158.124 85.3516C158.124 74.8521 155.68 64.4308 151.042 55.0619L157.113 49.4604C162.876 60.2619 165.912 72.3625 165.921 84.6748C165.901 86.9821 165.957 90.0766 165.917 93.8061C165.9 95.6455 166.955 97.3571 168.605 98.1666L173.468 100.551C175.275 101.437 176.443 103.31 176.443 105.323V130.903H176.443Z" fill="url(#paint0_linear)"/>
<path d="M115.989 85.7884C115.788 83.3837 114.386 81.4358 112.417 80.8256C111.489 80.5381 109.085 80.171 106.808 82.9662C104.69 85.565 94.0467 104.793 91.9347 108.621C91.4597 109.482 91.4749 110.53 91.9747 111.376C92.4744 112.223 93.3843 112.742 94.3672 112.742H110.411C110.39 115.69 110.368 118.535 110.346 121.059C110.333 122.594 111.566 123.848 113.101 123.861H113.125C114.648 123.861 115.89 122.633 115.903 121.106C115.912 120.12 115.939 116.885 115.969 112.742H118.026C119.561 112.742 120.805 111.498 120.805 109.963C120.805 108.429 119.561 107.185 118.026 107.185H116.006C116.063 97.8584 116.102 87.1477 115.989 85.7884ZM110.449 107.185H99.0855C103.258 99.6922 108.479 90.4864 110.484 87.3866C110.528 90.436 110.5 98.6867 110.449 107.185Z" fill="url(#paint1_linear)"/>
<path d="M87.4483 121.33C87.4291 119.795 86.1843 118.577 84.635 118.587C79.5736 118.65 74.1492 118.685 70.4356 118.67C72.5213 115.927 75.933 111.375 81.1574 103.91C83.6792 100.166 85.6012 96.6284 85.8512 92.6795C85.8512 85.8318 80.2801 80.2606 73.4323 80.2606C67.5111 80.2606 62.3864 84.4725 61.2464 90.2755C60.9508 91.7811 61.9318 93.2415 63.4374 93.5375C64.9434 93.8324 66.4038 92.8522 66.6994 91.3466C67.3284 88.1431 70.1603 85.8177 73.4323 85.8177C77.1615 85.8177 80.2056 88.8085 80.2923 92.5173C80.0804 95.0213 78.7089 97.5734 76.6043 100.723C70.6193 109.274 67.0461 113.953 65.1264 116.467C62.8435 119.456 62.1548 120.358 62.6572 121.992C62.9413 122.916 63.6467 123.627 64.5921 123.942C66.5253 124.46 78.4444 124.171 84.7043 124.143C86.2391 124.124 87.4676 122.864 87.4483 121.33Z" fill="url(#paint2_linear)"/>
<defs>
<linearGradient id="paint0_linear" x1="0" y1="0" x2="221.422" y2="78.5387" gradientUnits="userSpaceOnUse">
<stop stop-color="#36849A"/>
<stop offset="1" stop-color="#61B8C4"/>
</linearGradient>
<linearGradient id="paint1_linear" x1="91.5889" y1="80.6313" x2="129.254" y2="90.0413" gradientUnits="userSpaceOnUse">
<stop stop-color="#36849A"/>
<stop offset="1" stop-color="#61B8C4"/>
</linearGradient>
<linearGradient id="paint2_linear" x1="61.1938" y1="80.2606" x2="95.4848" y2="87.8266" gradientUnits="userSpaceOnUse">
<stop stop-color="#36849A"/>
<stop offset="1" stop-color="#61B8C4"/>
</linearGradient>
</defs>
</svg>
