<svg width="24" height="27" viewBox="0 0 24 27" fill="none" xmlns="http://www.w3.org/2000/svg">
<path d="M1.3335 13.5L14.6669 13.5" stroke="white" stroke-width="2" stroke-linecap="round"/>
<line x1="1" y1="-1" x2="6.54248" y2="-1" transform="matrix(-0.707108 -0.707106 0.707108 -0.707106 16.8892 13.5)" stroke="white" stroke-width="2" stroke-linecap="round"/>
<line x1="1" y1="-1" x2="6.54248" y2="-1" transform="matrix(-0.707108 0.707106 0.707108 0.707106 16.8892 13.5)" stroke="white" stroke-width="2" stroke-linecap="round"/>
<path d="M12.667 24.5C12.1147 24.5 11.667 24.9477 11.667 25.5C11.667 26.0523 12.1147 26.5 12.667 26.5L12.667 24.5ZM12.667 0.5C12.1147 0.5 11.667 0.947714 11.667 1.5C11.667 2.05228 12.1147 2.5 12.667 2.5L12.667 0.5ZM22.0675 22.8603L23.0624 22.9613L22.0675 22.8603ZM22.0675 4.13969L23.0624 4.03867L22.0675 4.13969ZM12.667 2.5C12.6718 2.5 12.6766 2.5 12.6814 2.5C12.6863 2.5 12.6911 2.5 12.6959 2.5C12.7007 2.5 12.7055 2.5 12.7104 2.5C12.7152 2.5 12.72 2.5 12.7248 2.5C12.7296 2.5 12.7344 2.5 12.7392 2.5C12.7441 2.5 12.7489 2.5 12.7537 2.5C12.7585 2.5 12.7633 2.5 12.7681 2.5C12.7729 2.5 12.7777 2.5 12.7825 2.5C12.7874 2.5 12.7922 2.5 12.797 2.5C12.8018 2.5 12.8066 2.5 12.8114 2.5C12.8162 2.5 12.821 2.5 12.8258 2.5C12.8306 2.5 12.8354 2.5 12.8402 2.5C12.845 2.5 12.8498 2.5 12.8546 2.5C12.8594 2.5 12.8642 2.5 12.8691 2.5C12.8739 2.5 12.8787 2.5 12.8835 2.5C12.8883 2.5 12.8931 2.5 12.8979 2.5C12.9027 2.5 12.9075 2.5 12.9123 2.5C12.9171 2.5 12.9218 2.5 12.9266 2.5C12.9314 2.5 12.9362 2.5 12.941 2.5C12.9458 2.5 12.9506 2.5 12.9554 2.5C12.9602 2.5 12.965 2.5 12.9698 2.5C12.9746 2.5 12.9794 2.5 12.9842 2.5C12.989 2.5 12.9938 2.5 12.9985 2.5C13.0033 2.5 13.0081 2.5 13.0129 2.5C13.0177 2.5 13.0225 2.5 13.0273 2.5C13.0321 2.5 13.0369 2.5 13.0416 2.5C13.0464 2.5 13.0512 2.5 13.056 2.5C13.0608 2.5 13.0656 2.5 13.0703 2.5C13.0751 2.5 13.0799 2.5 13.0847 2.5C13.0895 2.5 13.0943 2.5 13.099 2.5C13.1038 2.5 13.1086 2.5 13.1134 2.5C13.1182 2.5 13.1229 2.5 13.1277 2.5C13.1325 2.5 13.1373 2.5 13.142 2.5C13.1468 2.5 13.1516 2.5 13.1564 2.5C13.1611 2.5 13.1659 2.5 13.1707 2.5C13.1755 2.5 13.1802 2.5 13.185 2.5C13.1898 2.5 13.1946 2.5 13.1993 2.5C13.2041 2.5 13.2089 2.5 13.2136 2.5C13.2184 2.5 13.2232 2.5 13.2279 2.5C13.2327 2.5 13.2375 2.5 13.2422 2.5C13.247 2.5 13.2518 2.5 13.2565 2.5C13.2613 2.5 13.2661 2.5 13.2708 2.5C13.2756 2.5 13.2804 2.5 13.2851 2.5C13.2899 2.5 13.2946 2.5 13.2994 2.5C13.3042 2.5 13.3089 2.5 13.3137 2.5C13.3184 2.5 13.3232 2.5 13.3279 2.5C13.3327 2.5 13.3375 2.5 13.3422 2.5C13.347 2.5 13.3517 2.5 13.3565 2.5C13.3612 2.5 13.366 2.5 13.3707 2.5C13.3755 2.5 13.3802 2.5 13.385 2.5C13.3897 2.5 13.3945 2.5 13.3992 2.5C13.404 2.5 13.4087 2.5 13.4135 2.5C13.4182 2.5 13.423 2.5 13.4277 2.5C13.4325 2.5 13.4372 2.5 13.442 2.5C13.4467 2.5 13.4515 2.5 13.4562 2.5C13.4609 2.5 13.4657 2.5 13.4704 2.5C13.4752 2.5 13.4799 2.5 13.4846 2.5C13.4894 2.5 13.4941 2.5 13.4989 2.5C13.5036 2.5 13.5083 2.5 13.5131 2.5C13.5178 2.5 13.5225 2.5 13.5273 2.5C13.532 2.5 13.5368 2.5 13.5415 2.5C13.5462 2.5 13.5509 2.5 13.5557 2.5C13.5604 2.5 13.5651 2.5 13.5699 2.5C13.5746 2.5 13.5793 2.5 13.5841 2.5C13.5888 2.5 13.5935 2.5 13.5982 2.5C13.603 2.5 13.6077 2.5 13.6124 2.5C13.6171 2.5 13.6219 2.5 13.6266 2.5C13.6313 2.5 13.636 2.5 13.6408 2.5C13.6455 2.5 13.6502 2.5 13.6549 2.5C13.6596 2.5 13.6644 2.5 13.6691 2.5C13.6738 2.5 13.6785 2.5 13.6832 2.5C13.688 2.5 13.6927 2.5 13.6974 2.5C13.7021 2.5 13.7068 2.5 13.7115 2.5C13.7162 2.5 13.721 2.5 13.7257 2.5C13.7304 2.5 13.7351 2.5 13.7398 2.5C13.7445 2.5 13.7492 2.5 13.7539 2.5C13.7586 2.5 13.7633 2.5 13.768 2.5C13.7727 2.5 13.7775 2.5 13.7822 2.5C13.7869 2.5 13.7916 2.5 13.7963 2.5C13.801 2.5 13.8057 2.5 13.8104 2.5C13.8151 2.5 13.8198 2.5 13.8245 2.5C13.8292 2.5 13.8339 2.5 13.8386 2.5C13.8433 2.5 13.848 2.5 13.8527 2.5C13.8574 2.5 13.8621 2.5 13.8667 2.5C13.8714 2.5 13.8761 2.5 13.8808 2.5C13.8855 2.5 13.8902 2.5 13.8949 2.5C13.8996 2.5 13.9043 2.5 13.909 2.5C13.9137 2.5 13.9183 2.5 13.923 2.5C13.9277 2.5 13.9324 2.5 13.9371 2.5C13.9418 2.5 13.9465 2.5 13.9511 2.5C13.9558 2.5 13.9605 2.5 13.9652 2.5C13.9699 2.5 13.9745 2.5 13.9792 2.5C13.9839 2.5 13.9886 2.5 13.9933 2.5C13.9979 2.5 14.0026 2.5 14.0073 2.5C14.012 2.5 14.0166 2.5 14.0213 2.5C14.026 2.5 14.0307 2.5 14.0353 2.5C14.04 2.5 14.0447 2.5 14.0493 2.5C14.054 2.5 14.0587 2.5 14.0634 2.5C14.068 2.5 14.0727 2.5 14.0774 2.5C14.082 2.5 14.0867 2.5 14.0914 2.5C14.096 2.5 14.1007 2.5 14.1053 2.5C14.11 2.5 14.1147 2.5 14.1193 2.5C14.124 2.5 14.1286 2.5 14.1333 2.5C14.138 2.5 14.1426 2.5 14.1473 2.5C14.1519 2.5 14.1566 2.5 14.1612 2.5C14.1659 2.5 14.1706 2.5 14.1752 2.5C14.1799 2.5 14.1845 2.5 14.1892 2.5C14.1938 2.5 14.1985 2.5 14.2031 2.5C14.2078 2.5 14.2124 2.5 14.2171 2.5C14.2217 2.5 14.2263 2.5 14.231 2.5C14.2356 2.5 14.2403 2.5 14.2449 2.5C14.2496 2.5 14.2542 2.5 14.2588 2.5C14.2635 2.5 14.2681 2.5 14.2728 2.5C14.2774 2.5 14.282 2.5 14.2867 2.5C14.2913 2.5 14.296 2.5 14.3006 2.5C14.3052 2.5 14.3099 2.5 14.3145 2.5C14.3191 2.5 14.3238 2.5 14.3284 2.5C14.333 2.5 14.3376 2.5 14.3423 2.5C14.3469 2.5 14.3515 2.5 14.3562 2.5C14.3608 2.5 14.3654 2.5 14.37 2.5C14.3747 2.5 14.3793 2.5 14.3839 2.5C14.3885 2.5 14.3932 2.5 14.3978 2.5C14.4024 2.5 14.407 2.5 14.4116 2.5C14.4163 2.5 14.4209 2.5 14.4255 2.5C14.4301 2.5 14.4347 2.5 14.4393 2.5C14.4439 2.5 14.4486 2.5 14.4532 2.5C14.4578 2.5 14.4624 2.5 14.467 2.5C14.4716 2.5 14.4762 2.5 14.4808 2.5C14.4854 2.5 14.49 2.5 14.4947 2.5C14.4993 2.5 14.5039 2.5 14.5085 2.5C14.5131 2.5 14.5177 2.5 14.5223 2.5C14.5269 2.5 14.5315 2.5 14.5361 2.5C14.5407 2.5 14.5453 2.5 14.5499 2.5C14.5545 2.5 14.5591 2.5 14.5637 2.5C14.5683 2.5 14.5729 2.5 14.5774 2.5C14.582 2.5 14.5866 2.5 14.5912 2.5C14.5958 2.5 14.6004 2.5 14.605 2.5C14.6096 2.5 14.6142 2.5 14.6188 2.5C14.6233 2.5 14.6279 2.5 14.6325 2.5C14.6371 2.5 14.6417 2.5 14.6463 2.5C14.6508 2.5 14.6554 2.5 14.66 2.5C14.6646 2.5 14.6692 2.5 14.6737 2.5C14.6783 2.5 14.6829 2.5 14.6875 2.5C14.6921 2.5 14.6966 2.5 14.7012 2.5C14.7058 2.5 14.7103 2.5 14.7149 2.5C14.7195 2.5 14.7241 2.5 14.7286 2.5C14.7332 2.5 14.7378 2.5 14.7423 2.5C14.7469 2.5 14.7515 2.5 14.756 2.5C14.7606 2.5 14.7652 2.5 14.7697 2.5C14.7743 2.5 14.7788 2.5 14.7834 2.5C14.788 2.5 14.7925 2.5 14.7971 2.5C14.8016 2.5 14.8062 2.5 14.8107 2.5C14.8153 2.5 14.8199 2.5 14.8244 2.5C14.829 2.5 14.8335 2.5 14.8381 2.5C14.8426 2.5 14.8472 2.5 14.8517 2.5C14.8563 2.5 14.8608 2.5 14.8654 2.5C14.8699 2.5 14.8745 2.5 14.879 2.5C14.8835 2.5 14.8881 2.5 14.8926 2.5C14.8972 2.5 14.9017 2.5 14.9062 2.5C14.9108 2.5 14.9153 2.5 14.9199 2.5C14.9244 2.5 14.9289 2.5 14.9335 2.5C14.938 2.5 14.9425 2.5 14.9471 2.5C14.9516 2.5 14.9561 2.5 14.9607 2.5C14.9652 2.5 14.9697 2.5 14.9742 2.5C14.9788 2.5 14.9833 2.5 14.9878 2.5C14.9924 2.5 14.9969 2.5 15.0014 2.5C15.0059 2.5 15.0104 2.5 15.015 2.5C15.0195 2.5 15.024 2.5 15.0285 2.5C15.033 2.5 15.0376 2.5 15.0421 2.5C15.0466 2.5 15.0511 2.5 15.0556 2.5C15.0601 2.5 15.0646 2.5 15.0692 2.5C15.0737 2.5 15.0782 2.5 15.0827 2.5C15.0872 2.5 15.0917 2.5 15.0962 2.5C15.1007 2.5 15.1052 2.5 15.1097 2.5C15.1142 2.5 15.1187 2.5 15.1232 2.5C15.1277 2.5 15.1322 2.5 15.1367 2.5C15.1412 2.5 15.1457 2.5 15.1502 2.5C15.1547 2.5 15.1592 2.5 15.1637 2.5C15.1682 2.5 15.1727 2.5 15.1772 2.5C15.1817 2.5 15.1862 2.5 15.1907 2.5C15.1951 2.5 15.1996 2.5 15.2041 2.5C15.2086 2.5 15.2131 2.5 15.2176 2.5C15.2221 2.5 15.2265 2.5 15.231 2.5C15.2355 2.5 15.24 2.5 15.2445 2.5C15.2489 2.5 15.2534 2.5 15.2579 2.5C15.2624 2.5 15.2668 2.5 15.2713 2.5C15.2758 2.5 15.2803 2.5 15.2847 2.5C15.2892 2.5 15.2937 2.5 15.2982 2.5C15.3026 2.5 15.3071 2.5 15.3116 2.5C15.316 2.5 15.3205 2.5 15.3249 2.5C15.3294 2.5 15.3339 2.5 15.3383 2.5C15.3428 2.5 15.3473 2.5 15.3517 2.5C15.3562 2.5 15.3606 2.5 15.3651 2.5C15.3695 2.5 15.374 2.5 15.3785 2.5C15.3829 2.5 15.3874 2.5 15.3918 2.5C15.3963 2.5 15.4007 2.5 15.4052 2.5C15.4096 2.5 15.4141 2.5 15.4185 2.5C15.4229 2.5 15.4274 2.5 15.4318 2.5C15.4363 2.5 15.4407 2.5 15.4452 2.5C15.4496 2.5 15.454 2.5 15.4585 2.5C15.4629 2.5 15.4674 2.5 15.4718 2.5C15.4762 2.5 15.4807 2.5 15.4851 2.5C15.4895 2.5 15.494 2.5 15.4984 2.5C15.5028 2.5 15.5072 2.5 15.5117 2.5C15.5161 2.5 15.5205 2.5 15.525 2.5C15.5294 2.5 15.5338 2.5 15.5382 2.5C15.5426 2.5 15.5471 2.5 15.5515 2.5C15.5559 2.5 15.5603 2.5 15.5647 2.5C15.5692 2.5 15.5736 2.5 15.578 2.5C15.5824 2.5 15.5868 2.5 15.5912 2.5C15.5956 2.5 15.6 2.5 15.6045 2.5C15.6089 2.5 15.6133 2.5 15.6177 2.5C15.6221 2.5 15.6265 2.5 15.6309 2.5C15.6353 2.5 15.6397 2.5 15.6441 2.5C15.6485 2.5 15.6529 2.5 15.6573 2.5C15.6617 2.5 15.6661 2.5 15.6705 2.5C15.6749 2.5 15.6793 2.5 15.6837 2.5C15.6881 2.5 15.6925 2.5 15.6968 2.5C15.7012 2.5 15.7056 2.5 15.71 2.5C15.7144 2.5 15.7188 2.5 15.7232 2.5C15.7275 2.5 15.7319 2.5 15.7363 2.5C15.7407 2.5 15.7451 2.5 15.7495 2.5C15.7538 2.5 15.7582 2.5 15.7626 2.5C15.767 2.5 15.7713 2.5 15.7757 2.5C15.7801 2.5 15.7845 2.5 15.7888 2.5C15.7932 2.5 15.7976 2.5 15.8019 2.5C15.8063 2.5 15.8107 2.5 15.815 2.5C15.8194 2.5 15.8238 2.5 15.8281 2.5C15.8325 2.5 15.8368 2.5 15.8412 2.5C15.8456 2.5 15.8499 2.5 15.8543 2.5C15.8586 2.5 15.863 2.5 15.8673 2.5C15.8717 2.5 15.876 2.5 15.8804 2.5C15.8847 2.5 15.8891 2.5 15.8934 2.5C15.8978 2.5 15.9021 2.5 15.9065 2.5C15.9108 2.5 15.9152 2.5 15.9195 2.5C15.9239 2.5 15.9282 2.5 15.9325 2.5C15.9369 2.5 15.9412 2.5 15.9455 2.5C15.9499 2.5 15.9542 2.5 15.9585 2.5C15.9629 2.5 15.9672 2.5 15.9715 2.5C15.9759 2.5 15.9802 2.5 15.9845 2.5C15.9889 2.5 15.9932 2.5 15.9975 2.5C16.0018 2.5 16.0062 2.5 16.0105 2.5C16.0148 2.5 16.0191 2.5 16.0234 2.5C16.0278 2.5 16.0321 2.5 16.0364 2.5C16.0407 2.5 16.045 2.5 16.0493 2.5C16.0536 2.5 16.058 2.5 16.0623 2.5C16.0666 2.5 16.0709 2.5 16.0752 2.5C16.0795 2.5 16.0838 2.5 16.0881 2.5C16.0924 2.5 16.0967 2.5 16.101 2.5C16.1053 2.5 16.1096 2.5 16.1139 2.5C16.1182 2.5 16.1225 2.5 16.1268 2.5C16.1311 2.5 16.1354 2.5 16.1397 2.5C16.144 2.5 16.1483 2.5 16.1526 2.5C16.1569 2.5 16.1611 2.5 16.1654 2.5C16.1697 2.5 16.174 2.5 16.1783 2.5C16.1826 2.5 16.1868 2.5 16.1911 2.5C16.1954 2.5 16.1997 2.5 16.204 2.5C16.2082 2.5 16.2125 2.5 16.2168 2.5C16.2211 2.5 16.2253 2.5 16.2296 2.5C16.2339 2.5 16.2382 2.5 16.2424 2.5C16.2467 2.5 16.251 2.5 16.2552 2.5C16.2595 2.5 16.2637 2.5 16.268 2.5C16.2723 2.5 16.2765 2.5 16.2808 2.5C16.285 2.5 16.2893 2.5 16.2936 2.5C16.2978 2.5 16.3021 2.5 16.3063 2.5C16.3106 2.5 16.3148 2.5 16.3191 2.5C16.3233 2.5 16.3276 2.5 16.3318 2.5C16.3361 2.5 16.3403 2.5 16.3446 2.5C16.3488 2.5 16.353 2.5 16.3573 2.5C16.3615 2.5 16.3658 2.5 16.37 2.5C16.3742 2.5 16.3785 2.5 16.3827 2.5C16.3869 2.5 16.3912 2.5 16.3954 2.5C16.3996 2.5 16.4039 2.5 16.4081 2.5C16.4123 2.5 16.4166 2.5 16.4208 2.5C16.425 2.5 16.4292 2.5 16.4334 2.5C16.4377 2.5 16.4419 2.5 16.4461 2.5C16.4503 2.5 16.4545 2.5 16.4588 2.5C16.463 2.5 16.4672 2.5 16.4714 2.5C16.4756 2.5 16.4798 2.5 16.484 2.5C16.4882 2.5 16.4924 2.5 16.4967 2.5C16.5009 2.5 16.5051 2.5 16.5093 2.5C16.5135 2.5 16.5177 2.5 16.5219 2.5C16.5261 2.5 16.5303 2.5 16.5345 2.5C16.5387 2.5 16.5429 2.5 16.547 2.5C16.5512 2.5 16.5554 2.5 16.5596 2.5C16.5638 2.5 16.568 2.5 16.5722 2.5C16.5764 2.5 16.5806 2.5 16.5847 2.5C16.5889 2.5 16.5931 2.5 16.5973 2.5C16.6015 2.5 16.6056 2.5 16.6098 2.5C16.614 2.5 16.6182 2.5 16.6223 2.5C16.6265 2.5 16.6307 2.5 16.6349 2.5C16.639 2.5 16.6432 2.5 16.6474 2.5C16.6515 2.5 16.6557 2.5 16.6599 2.5C16.664 2.5 16.6682 2.5 16.6724 2.5C16.6765 2.5 16.6807 2.5 16.6848 2.5C16.689 2.5 16.6931 2.5 16.6973 2.5C16.7014 2.5 16.7056 2.5 16.7098 2.5C16.7139 2.5 16.7181 2.5 16.7222 2.5C16.7263 2.5 16.7305 2.5 16.7346 2.5C16.7388 2.5 16.7429 2.5 16.7471 2.5C16.7512 2.5 16.7553 2.5 16.7595 2.5C16.7636 2.5 16.7678 2.5 16.7719 2.5C16.776 2.5 16.7802 2.5 16.7843 2.5C16.7884 2.5 16.7925 2.5 16.7967 2.5C16.8008 2.5 16.8049 2.5 16.809 2.5C16.8132 2.5 16.8173 2.5 16.8214 2.5C16.8255 2.5 16.8297 2.5 16.8338 2.5C16.8379 2.5 16.842 2.5 16.8461 2.5C16.8502 2.5 16.8543 2.5 16.8585 2.5C16.8626 2.5 16.8667 2.5 16.8708 2.5C16.8749 2.5 16.879 2.5 16.8831 2.5C16.8872 2.5 16.8913 2.5 16.8954 2.5C16.8995 2.5 16.9036 2.5 16.9077 2.5C16.9118 2.5 16.9159 2.5 16.92 2.5C16.9241 2.5 16.9282 2.5 16.9323 2.5C16.9363 2.5 16.9404 2.5 16.9445 2.5C16.9486 2.5 16.9527 2.5 16.9568 2.5C16.9609 2.5 16.9649 2.5 16.969 2.5C16.9731 2.5 16.9772 2.5 16.9813 2.5C16.9853 2.5 16.9894 2.5 16.9935 2.5C16.9975 2.5 17.0016 2.5 17.0057 2.5C17.0098 2.5 17.0138 2.5 17.0179 2.5C17.022 2.5 17.026 2.5 17.0301 2.5C17.0341 2.5 17.0382 2.5 17.0423 2.5C17.0463 2.5 17.0504 2.5 17.0544 2.5C17.0585 2.5 17.0625 2.5 17.0666 2.5C17.0706 2.5 17.0747 2.5 17.0787 2.5C17.0828 2.5 17.0868 2.5 17.0909 2.5C17.0949 2.5 17.099 2.5 17.103 2.5C17.1071 2.5 17.1111 2.5 17.1151 2.5C17.1192 2.5 17.1232 2.5 17.1272 2.5C17.1313 2.5 17.1353 2.5 17.1393 2.5C17.1434 2.5 17.1474 2.5 17.1514 2.5C17.1555 2.5 17.1595 2.5 17.1635 2.5C17.1675 2.5 17.1715 2.5 17.1756 2.5C17.1796 2.5 17.1836 2.5 17.1876 2.5C17.1916 2.5 17.1956 2.5 17.1997 2.5C17.2037 2.5 17.2077 2.5 17.2117 2.5C17.2157 2.5 17.2197 2.5 17.2237 2.5C17.2277 2.5 17.2317 2.5 17.2357 2.5C17.2397 2.5 17.2437 2.5 17.2477 2.5C17.2517 2.5 17.2557 2.5 17.2597 2.5C17.2637 2.5 17.2677 2.5 17.2717 2.5C17.2757 2.5 17.2797 2.5 17.2837 2.5C17.2876 2.5 17.2916 2.5 17.2956 2.5C17.2996 2.5 17.3036 2.5 17.3076 2.5C17.3115 2.5 17.3155 2.5 17.3195 2.5C17.3235 2.5 17.3274 2.5 17.3314 2.5C17.3354 2.5 17.3394 2.5 17.3433 2.5C17.3473 2.5 17.3513 2.5 17.3552 2.5C17.3592 2.5 17.3632 2.5 17.3671 2.5C17.3711 2.5 17.375 2.5 17.379 2.5C17.383 2.5 17.3869 2.5 17.3909 2.5C17.3948 2.5 17.3988 2.5 17.4027 2.5C17.4067 2.5 17.4106 2.5 17.4146 2.5C17.4185 2.5 17.4225 2.5 17.4264 2.5C17.4304 2.5 17.4343 2.5 17.4382 2.5C17.4422 2.5 17.4461 2.5 17.45 2.5C17.454 2.5 17.4579 2.5 17.4619 2.5C17.4658 2.5 17.4697 2.5 17.4736 2.5C17.4776 2.5 17.4815 2.5 17.4854 2.5C17.4893 2.5 17.4933 2.5 17.4972 2.5C17.5011 2.5 17.505 2.5 17.5089 2.5C17.5129 2.5 17.5168 2.5 17.5207 2.5C17.5246 2.5 17.5285 2.5 17.5324 2.5C17.5363 2.5 17.5402 2.5 17.5441 2.5C17.5481 2.5 17.552 2.5 17.5559 2.5C17.5598 2.5 17.5637 2.5 17.5676 2.5C17.5715 2.5 17.5753 2.5 17.5792 2.5C17.5831 2.5 17.587 2.5 17.5909 2.5C17.5948 2.5 17.5987 2.5 17.6026 2.5C17.6065 2.5 17.6104 2.5 17.6142 2.5C17.6181 2.5 17.622 2.5 17.6259 2.5C17.6298 2.5 17.6336 2.5 17.6375 2.5C17.6414 2.5 17.6453 2.5 17.6491 2.5C17.653 2.5 17.6569 2.5 17.6607 2.5C17.6646 2.5 17.6685 2.5 17.6723 2.5C17.6762 2.5 17.6801 2.5 17.6839 2.5C17.6878 2.5 17.6916 2.5 17.6955 2.5C17.6993 2.5 17.7032 2.5 17.707 2.5C17.7109 2.5 17.7148 2.5 17.7186 2.5C17.7224 2.5 17.7263 2.5 17.7301 2.5C17.734 2.5 17.7378 2.5 17.7417 2.5C17.7455 2.5 17.7493 2.5 17.7532 2.5C17.757 2.5 17.7608 2.5 17.7647 2.5C17.7685 2.5 17.7723 2.5 17.7762 2.5C17.78 2.5 17.7838 2.5 17.7876 2.5C17.7915 2.5 17.7953 2.5 17.7991 2.5C17.8029 2.5 17.8068 2.5 17.8106 2.5C17.8144 2.5 17.8182 2.5 17.822 2.5C17.8258 2.5 17.8296 2.5 17.8334 2.5C17.8373 2.5 17.8411 2.5 17.8449 2.5C17.8487 2.5 17.8525 2.5 17.8563 2.5C17.8601 2.5 17.8639 2.5 17.8677 2.5C17.8715 2.5 17.8753 2.5 17.879 2.5C17.8828 2.5 17.8866 2.5 17.8904 2.5C17.8942 2.5 17.898 2.5 17.9018 2.5C17.9056 2.5 17.9093 2.5 17.9131 2.5C17.9169 2.5 17.9207 2.5 17.9245 2.5C17.9282 2.5 17.932 2.5 17.9358 2.5C17.9396 2.5 17.9433 2.5 17.9471 2.5C17.9509 2.5 17.9546 2.5 17.9584 2.5C17.9622 2.5 17.9659 2.5 17.9697 2.5C17.9734 2.5 17.9772 2.5 17.981 2.5C17.9847 2.5 17.9885 2.5 17.9922 2.5C17.996 2.5 17.9997 2.5 18.0035 2.5C18.0072 2.5 18.011 2.5 18.0147 2.5C18.0184 2.5 18.0222 2.5 18.0259 2.5C18.0297 2.5 18.0334 2.5 18.0371 2.5C18.0409 2.5 18.0446 2.5 18.0483 2.5C18.0521 2.5 18.0558 2.5 18.0595 2.5C18.0633 2.5 18.067 2.5 18.0707 2.5C18.0744 2.5 18.0781 2.5 18.0819 2.5C18.0856 2.5 18.0893 2.5 18.093 2.5C18.0967 2.5 18.1004 2.5 18.1042 2.5C18.1079 2.5 18.1116 2.5 18.1153 2.5C18.119 2.5 18.1227 2.5 18.1264 2.5C18.1301 2.5 18.1338 2.5 18.1375 2.5C18.1412 2.5 18.1449 2.5 18.1486 2.5C18.1523 2.5 18.156 2.5 18.1597 2.5C18.1634 2.5 18.167 2.5 18.1707 2.5C18.1744 2.5 18.1781 2.5 18.1818 2.5C18.1855 2.5 18.1891 2.5 18.1928 2.5C18.1965 2.5 18.2002 2.5 18.2038 2.5C18.2075 2.5 18.2112 2.5 18.2149 2.5C18.2185 2.5 18.2222 2.5 18.2259 2.5C18.2295 2.5 18.2332 2.5 18.2368 2.5C18.2405 2.5 18.2442 2.5 18.2478 2.5C18.2515 2.5 18.2551 2.5 18.2588 2.5C18.2624 2.5 18.2661 2.5 18.2697 2.5C18.2734 2.5 18.277 2.5 18.2807 2.5C18.2843 2.5 18.288 2.5 18.2916 2.5C18.2952 2.5 18.2989 2.5 18.3025 2.5C18.3061 2.5 18.3098 2.5 18.3134 2.5C18.317 2.5 18.3207 2.5 18.3243 2.5C18.3279 2.5 18.3315 2.5 18.3352 2.5C18.3388 2.5 18.3424 2.5 18.346 2.5C18.3496 2.5 18.3533 2.5 18.3569 2.5C18.3605 2.5 18.3641 2.5 18.3677 2.5C18.3713 2.5 18.3749 2.5 18.3785 2.5C18.3821 2.5 18.3857 2.5 18.3893 2.5C18.3929 2.5 18.3965 2.5 18.4001 2.5C18.4037 2.5 18.4073 2.5 18.4109 2.5C18.4145 2.5 18.4181 2.5 18.4217 2.5C18.4253 2.5 18.4289 2.5 18.4324 2.5C18.436 2.5 18.4396 2.5 18.4432 2.5C18.4468 2.5 18.4503 2.5 18.4539 2.5C18.4575 2.5 18.4611 2.5 18.4646 2.5C18.4682 2.5 18.4718 2.5 18.4753 2.5C18.4789 2.5 18.4825 2.5 18.486 2.5C18.4896 2.5 18.4932 2.5 18.4967 2.5C18.5003 2.5 18.5038 2.5 18.5074 2.5C18.5109 2.5 18.5145 2.5 18.518 2.5C18.5216 2.5 18.5251 2.5 18.5287 2.5C18.5322 2.5 18.5357 2.5 18.5393 2.5C18.5428 2.5 18.5464 2.5 18.5499 2.5C18.5534 2.5 18.557 2.5 18.5605 2.5C18.564 2.5 18.5676 2.5 18.5711 2.5C18.5746 2.5 18.5781 2.5 18.5817 2.5C18.5852 2.5 18.5887 2.5 18.5922 2.5C18.5957 2.5 18.5992 2.5 18.6028 2.5C18.6063 2.5 18.6098 2.5 18.6133 2.5C18.6168 2.5 18.6203 2.5 18.6238 2.5C18.6273 2.5 18.6308 2.5 18.6343 2.5C18.6378 2.5 18.6413 2.5 18.6448 2.5C18.6483 2.5 18.6518 2.5 18.6553 2.5C18.6588 2.5 18.6623 2.5 18.6657 2.5C18.6692 2.5 18.6727 2.5 18.6762 2.5C18.6797 2.5 18.6832 2.5 18.6866 2.5C18.6901 2.5 18.6936 2.5 18.6971 2.5C18.7005 2.5 18.704 2.5 18.7075 2.5C18.7109 2.5 18.7144 2.5 18.7179 2.5C18.7213 2.5 18.7248 2.5 18.7282 2.5C18.7317 2.5 18.7352 2.5 18.7386 2.5C18.7421 2.5 18.7455 2.5 18.749 2.5C18.7524 2.5 18.7559 2.5 18.7593 2.5C18.7627 2.5 18.7662 2.5 18.7696 2.5C18.7731 2.5 18.7765 2.5 18.7799 2.5C18.7834 2.5 18.7868 2.5 18.7902 2.5C18.7937 2.5 18.7971 2.5 18.8005 2.5C18.804 2.5 18.8074 2.5 18.8108 2.5C18.8142 2.5 18.8176 2.5 18.8211 2.5C18.8245 2.5 18.8279 2.5 18.8313 2.5C18.8347 2.5 18.8381 2.5 18.8415 2.5C18.8449 2.5 18.8484 2.5 18.8518 2.5C18.8552 2.5 18.8586 2.5 18.862 2.5C18.8654 2.5 18.8688 2.5 18.8721 2.5C18.8755 2.5 18.8789 2.5 18.8823 2.5C18.8857 2.5 18.8891 2.5 18.8925 2.5C18.8959 2.5 18.8992 2.5 18.9026 2.5C18.906 2.5 18.9094 2.5 18.9128 2.5C18.9161 2.5 18.9195 2.5 18.9229 2.5C18.9263 2.5 18.9296 2.5 18.933 2.5C18.9364 2.5 18.9397 2.5 18.9431 2.5C18.9464 2.5 18.9498 2.5 18.9532 2.5C18.9565 2.5 18.9599 2.5 18.9632 2.5C18.9666 2.5 18.9699 2.5 18.9733 2.5C18.9766 2.5 18.98 2.5 18.9833 2.5C18.9866 2.5 18.99 2.5 18.9933 2.5C18.9967 2.5 19 2.5 19.0033 2.5C19.0067 2.5 19.01 2.5 19.0133 2.5C19.0166 2.5 19.02 2.5 19.0233 2.5C19.0266 2.5 19.0299 2.5 19.0333 2.5C19.0366 2.5 19.0399 2.5 19.0432 2.5C19.0465 2.5 19.0498 2.5 19.0531 2.5C19.0564 2.5 19.0598 2.5 19.0631 2.5C19.0664 2.5 19.0697 2.5 19.073 2.5C19.0763 2.5 19.0796 2.5 19.0829 2.5C19.0861 2.5 19.0894 2.5 19.0927 2.5C19.096 2.5 19.0993 2.5 19.1026 2.5C19.1059 2.5 19.1092 2.5 19.1124 2.5C19.1157 2.5 19.119 2.5 19.1223 2.5L19.1223 0.5C19.119 0.5 19.1157 0.5 19.1124 0.5C19.1092 0.5 19.1059 0.5 19.1026 0.5C19.0993 0.5 19.096 0.5 19.0927 0.5C19.0894 0.5 19.0861 0.5 19.0829 0.5C19.0796 0.5 19.0763 0.5 19.073 0.5C19.0697 0.5 19.0664 0.5 19.0631 0.5C19.0598 0.5 19.0564 0.5 19.0531 0.5C19.0498 0.5 19.0465 0.5 19.0432 0.5C19.0399 0.5 19.0366 0.5 19.0333 0.5C19.0299 0.5 19.0266 0.5 19.0233 0.5C19.02 0.5 19.0166 0.5 19.0133 0.5C19.01 0.5 19.0067 0.5 19.0033 0.5C19 0.5 18.9967 0.5 18.9933 0.5C18.99 0.5 18.9866 0.5 18.9833 0.5C18.98 0.5 18.9766 0.5 18.9733 0.5C18.9699 0.5 18.9666 0.5 18.9632 0.5C18.9599 0.5 18.9565 0.5 18.9532 0.5C18.9498 0.5 18.9464 0.5 18.9431 0.5C18.9397 0.5 18.9364 0.5 18.933 0.5C18.9296 0.5 18.9263 0.5 18.9229 0.5C18.9195 0.5 18.9161 0.5 18.9128 0.5C18.9094 0.5 18.906 0.5 18.9026 0.5C18.8992 0.5 18.8959 0.5 18.8925 0.5C18.8891 0.5 18.8857 0.5 18.8823 0.5C18.8789 0.5 18.8755 0.5 18.8721 0.5C18.8688 0.5 18.8654 0.5 18.862 0.5C18.8586 0.5 18.8552 0.5 18.8518 0.5C18.8484 0.5 18.8449 0.5 18.8415 0.5C18.8381 0.5 18.8347 0.5 18.8313 0.5C18.8279 0.5 18.8245 0.5 18.8211 0.5C18.8176 0.5 18.8142 0.5 18.8108 0.5C18.8074 0.5 18.804 0.5 18.8005 0.5C18.7971 0.5 18.7937 0.5 18.7902 0.5C18.7868 0.5 18.7834 0.5 18.7799 0.5C18.7765 0.5 18.7731 0.5 18.7696 0.5C18.7662 0.5 18.7627 0.5 18.7593 0.5C18.7559 0.5 18.7524 0.5 18.749 0.5C18.7455 0.5 18.7421 0.5 18.7386 0.5C18.7352 0.5 18.7317 0.5 18.7282 0.5C18.7248 0.5 18.7213 0.5 18.7179 0.5C18.7144 0.5 18.7109 0.5 18.7075 0.5C18.704 0.5 18.7005 0.5 18.6971 0.5C18.6936 0.5 18.6901 0.5 18.6866 0.5C18.6832 0.5 18.6797 0.5 18.6762 0.5C18.6727 0.5 18.6692 0.5 18.6657 0.5C18.6623 0.5 18.6588 0.5 18.6553 0.5C18.6518 0.5 18.6483 0.5 18.6448 0.5C18.6413 0.5 18.6378 0.5 18.6343 0.5C18.6308 0.5 18.6273 0.5 18.6238 0.5C18.6203 0.5 18.6168 0.5 18.6133 0.5C18.6098 0.5 18.6063 0.5 18.6028 0.5C18.5992 0.5 18.5957 0.5 18.5922 0.5C18.5887 0.5 18.5852 0.5 18.5817 0.5C18.5781 0.5 18.5746 0.5 18.5711 0.5C18.5676 0.5 18.564 0.5 18.5605 0.5C18.557 0.5 18.5534 0.5 18.5499 0.5C18.5464 0.5 18.5428 0.5 18.5393 0.5C18.5357 0.5 18.5322 0.5 18.5287 0.5C18.5251 0.5 18.5216 0.5 18.518 0.5C18.5145 0.5 18.5109 0.5 18.5074 0.5C18.5038 0.5 18.5003 0.5 18.4967 0.5C18.4932 0.5 18.4896 0.5 18.486 0.5C18.4825 0.5 18.4789 0.5 18.4753 0.5C18.4718 0.5 18.4682 0.5 18.4646 0.5C18.4611 0.5 18.4575 0.5 18.4539 0.5C18.4503 0.5 18.4468 0.5 18.4432 0.5C18.4396 0.5 18.436 0.5 18.4324 0.5C18.4289 0.5 18.4253 0.5 18.4217 0.5C18.4181 0.5 18.4145 0.5 18.4109 0.5C18.4073 0.5 18.4037 0.5 18.4001 0.5C18.3965 0.5 18.3929 0.5 18.3893 0.5C18.3857 0.5 18.3821 0.5 18.3785 0.5C18.3749 0.5 18.3713 0.5 18.3677 0.5C18.3641 0.5 18.3605 0.5 18.3569 0.5C18.3533 0.5 18.3496 0.5 18.346 0.5C18.3424 0.5 18.3388 0.5 18.3352 0.5C18.3315 0.5 18.3279 0.5 18.3243 0.5C18.3207 0.5 18.317 0.5 18.3134 0.5C18.3098 0.5 18.3061 0.5 18.3025 0.5C18.2989 0.5 18.2952 0.5 18.2916 0.5C18.288 0.5 18.2843 0.5 18.2807 0.5C18.277 0.5 18.2734 0.5 18.2697 0.5C18.2661 0.5 18.2624 0.5 18.2588 0.5C18.2551 0.5 18.2515 0.5 18.2478 0.5C18.2442 0.5 18.2405 0.5 18.2368 0.5C18.2332 0.5 18.2295 0.5 18.2259 0.5C18.2222 0.5 18.2185 0.5 18.2149 0.5C18.2112 0.5 18.2075 0.5 18.2038 0.5C18.2002 0.5 18.1965 0.5 18.1928 0.5C18.1891 0.5 18.1855 0.5 18.1818 0.5C18.1781 0.5 18.1744 0.5 18.1707 0.5C18.167 0.5 18.1634 0.5 18.1597 0.5C18.156 0.5 18.1523 0.5 18.1486 0.5C18.1449 0.5 18.1412 0.5 18.1375 0.5C18.1338 0.5 18.1301 0.5 18.1264 0.5C18.1227 0.5 18.119 0.5 18.1153 0.5C18.1116 0.5 18.1079 0.5 18.1042 0.5C18.1004 0.5 18.0967 0.5 18.093 0.5C18.0893 0.5 18.0856 0.5 18.0819 0.5C18.0781 0.5 18.0744 0.5 18.0707 0.5C18.067 0.5 18.0633 0.5 18.0595 0.5C18.0558 0.5 18.0521 0.5 18.0483 0.5C18.0446 0.5 18.0409 0.5 18.0371 0.5C18.0334 0.5 18.0297 0.5 18.0259 0.5C18.0222 0.5 18.0184 0.5 18.0147 0.5C18.011 0.5 18.0072 0.5 18.0035 0.5C17.9997 0.5 17.996 0.5 17.9922 0.5C17.9885 0.5 17.9847 0.5 17.981 0.5C17.9772 0.5 17.9734 0.5 17.9697 0.5C17.9659 0.5 17.9622 0.5 17.9584 0.5C17.9546 0.5 17.9509 0.5 17.9471 0.5C17.9433 0.5 17.9396 0.5 17.9358 0.5C17.932 0.5 17.9282 0.5 17.9245 0.5C17.9207 0.5 17.9169 0.5 17.9131 0.5C17.9093 0.5 17.9056 0.5 17.9018 0.5C17.898 0.5 17.8942 0.5 17.8904 0.5C17.8866 0.5 17.8828 0.5 17.879 0.5C17.8753 0.5 17.8715 0.5 17.8677 0.5C17.8639 0.5 17.8601 0.5 17.8563 0.5C17.8525 0.5 17.8487 0.5 17.8449 0.5C17.8411 0.5 17.8373 0.5 17.8334 0.5C17.8296 0.5 17.8258 0.5 17.822 0.5C17.8182 0.5 17.8144 0.5 17.8106 0.5C17.8068 0.5 17.8029 0.5 17.7991 0.5C17.7953 0.5 17.7915 0.5 17.7876 0.5C17.7838 0.5 17.78 0.5 17.7762 0.5C17.7723 0.5 17.7685 0.5 17.7647 0.5C17.7608 0.5 17.757 0.5 17.7532 0.5C17.7493 0.5 17.7455 0.5 17.7417 0.5C17.7378 0.5 17.734 0.5 17.7301 0.5C17.7263 0.5 17.7224 0.5 17.7186 0.5C17.7148 0.5 17.7109 0.5 17.707 0.5C17.7032 0.5 17.6993 0.5 17.6955 0.5C17.6916 0.5 17.6878 0.5 17.6839 0.5C17.6801 0.5 17.6762 0.5 17.6723 0.5C17.6685 0.5 17.6646 0.5 17.6607 0.5C17.6569 0.5 17.653 0.5 17.6491 0.5C17.6453 0.5 17.6414 0.5 17.6375 0.5C17.6336 0.5 17.6298 0.5 17.6259 0.5C17.622 0.5 17.6181 0.5 17.6142 0.5C17.6104 0.5 17.6065 0.5 17.6026 0.5C17.5987 0.5 17.5948 0.5 17.5909 0.5C17.587 0.5 17.5831 0.5 17.5792 0.5C17.5753 0.5 17.5715 0.5 17.5676 0.5C17.5637 0.5 17.5598 0.5 17.5559 0.5C17.552 0.5 17.5481 0.5 17.5441 0.5C17.5402 0.5 17.5363 0.5 17.5324 0.5C17.5285 0.5 17.5246 0.5 17.5207 0.5C17.5168 0.5 17.5129 0.5 17.5089 0.5C17.505 0.5 17.5011 0.5 17.4972 0.5C17.4933 0.5 17.4893 0.5 17.4854 0.5C17.4815 0.5 17.4776 0.5 17.4736 0.5C17.4697 0.5 17.4658 0.5 17.4619 0.5C17.4579 0.5 17.454 0.5 17.45 0.5C17.4461 0.5 17.4422 0.5 17.4382 0.5C17.4343 0.5 17.4304 0.5 17.4264 0.5C17.4225 0.5 17.4185 0.5 17.4146 0.5C17.4106 0.5 17.4067 0.5 17.4027 0.5C17.3988 0.5 17.3948 0.5 17.3909 0.5C17.3869 0.5 17.383 0.5 17.379 0.5C17.375 0.5 17.3711 0.5 17.3671 0.5C17.3632 0.5 17.3592 0.5 17.3552 0.5C17.3513 0.5 17.3473 0.5 17.3433 0.5C17.3394 0.5 17.3354 0.5 17.3314 0.5C17.3274 0.5 17.3235 0.5 17.3195 0.5C17.3155 0.5 17.3115 0.5 17.3076 0.5C17.3036 0.5 17.2996 0.5 17.2956 0.5C17.2916 0.5 17.2876 0.5 17.2837 0.5C17.2797 0.5 17.2757 0.5 17.2717 0.5C17.2677 0.5 17.2637 0.5 17.2597 0.5C17.2557 0.5 17.2517 0.5 17.2477 0.5C17.2437 0.5 17.2397 0.5 17.2357 0.5C17.2317 0.5 17.2277 0.5 17.2237 0.5C17.2197 0.5 17.2157 0.5 17.2117 0.5C17.2077 0.5 17.2037 0.5 17.1997 0.5C17.1956 0.5 17.1916 0.5 17.1876 0.5C17.1836 0.5 17.1796 0.5 17.1756 0.5C17.1715 0.5 17.1675 0.5 17.1635 0.5C17.1595 0.5 17.1555 0.5 17.1514 0.5C17.1474 0.5 17.1434 0.5 17.1393 0.5C17.1353 0.5 17.1313 0.5 17.1272 0.5C17.1232 0.5 17.1192 0.5 17.1151 0.5C17.1111 0.5 17.1071 0.5 17.103 0.5C17.099 0.5 17.0949 0.5 17.0909 0.5C17.0868 0.5 17.0828 0.5 17.0787 0.5C17.0747 0.5 17.0706 0.5 17.0666 0.5C17.0625 0.5 17.0585 0.5 17.0544 0.5C17.0504 0.5 17.0463 0.5 17.0423 0.5C17.0382 0.5 17.0341 0.5 17.0301 0.5C17.026 0.5 17.022 0.5 17.0179 0.5C17.0138 0.5 17.0098 0.5 17.0057 0.5C17.0016 0.5 16.9975 0.5 16.9935 0.5C16.9894 0.5 16.9853 0.5 16.9813 0.5C16.9772 0.5 16.9731 0.5 16.969 0.5C16.9649 0.5 16.9609 0.5 16.9568 0.5C16.9527 0.5 16.9486 0.5 16.9445 0.5C16.9404 0.5 16.9363 0.5 16.9323 0.5C16.9282 0.5 16.9241 0.5 16.92 0.5C16.9159 0.5 16.9118 0.5 16.9077 0.5C16.9036 0.5 16.8995 0.5 16.8954 0.5C16.8913 0.5 16.8872 0.5 16.8831 0.5C16.879 0.5 16.8749 0.5 16.8708 0.5C16.8667 0.5 16.8626 0.5 16.8585 0.5C16.8543 0.5 16.8502 0.5 16.8461 0.5C16.842 0.5 16.8379 0.5 16.8338 0.5C16.8297 0.5 16.8255 0.5 16.8214 0.5C16.8173 0.5 16.8132 0.5 16.809 0.5C16.8049 0.5 16.8008 0.5 16.7967 0.5C16.7925 0.5 16.7884 0.5 16.7843 0.5C16.7802 0.5 16.776 0.5 16.7719 0.5C16.7678 0.5 16.7636 0.5 16.7595 0.5C16.7553 0.5 16.7512 0.5 16.7471 0.5C16.7429 0.5 16.7388 0.5 16.7346 0.5C16.7305 0.5 16.7263 0.5 16.7222 0.5C16.7181 0.5 16.7139 0.5 16.7098 0.5C16.7056 0.5 16.7014 0.5 16.6973 0.5C16.6931 0.5 16.689 0.5 16.6848 0.5C16.6807 0.5 16.6765 0.5 16.6724 0.5C16.6682 0.5 16.664 0.5 16.6599 0.5C16.6557 0.5 16.6515 0.5 16.6474 0.5C16.6432 0.5 16.639 0.5 16.6349 0.5C16.6307 0.5 16.6265 0.5 16.6223 0.5C16.6182 0.5 16.614 0.5 16.6098 0.5C16.6056 0.5 16.6015 0.5 16.5973 0.5C16.5931 0.5 16.5889 0.5 16.5847 0.5C16.5806 0.5 16.5764 0.5 16.5722 0.5C16.568 0.5 16.5638 0.5 16.5596 0.5C16.5554 0.5 16.5512 0.5 16.547 0.5C16.5429 0.5 16.5387 0.5 16.5345 0.5C16.5303 0.5 16.5261 0.5 16.5219 0.5C16.5177 0.5 16.5135 0.5 16.5093 0.5C16.5051 0.5 16.5009 0.5 16.4967 0.5C16.4924 0.5 16.4882 0.5 16.484 0.5C16.4798 0.5 16.4756 0.5 16.4714 0.5C16.4672 0.5 16.463 0.5 16.4588 0.5C16.4545 0.5 16.4503 0.5 16.4461 0.5C16.4419 0.5 16.4377 0.5 16.4334 0.5C16.4292 0.5 16.425 0.5 16.4208 0.5C16.4166 0.5 16.4123 0.5 16.4081 0.5C16.4039 0.5 16.3996 0.5 16.3954 0.5C16.3912 0.5 16.3869 0.5 16.3827 0.5C16.3785 0.5 16.3742 0.5 16.37 0.5C16.3658 0.5 16.3615 0.5 16.3573 0.5C16.353 0.5 16.3488 0.5 16.3446 0.5C16.3403 0.5 16.3361 0.5 16.3318 0.5C16.3276 0.5 16.3233 0.5 16.3191 0.5C16.3148 0.5 16.3106 0.5 16.3063 0.5C16.3021 0.5 16.2978 0.5 16.2936 0.5C16.2893 0.5 16.285 0.5 16.2808 0.5C16.2765 0.5 16.2723 0.5 16.268 0.5C16.2637 0.5 16.2595 0.5 16.2552 0.5C16.251 0.5 16.2467 0.5 16.2424 0.5C16.2382 0.5 16.2339 0.5 16.2296 0.5C16.2253 0.5 16.2211 0.5 16.2168 0.5C16.2125 0.5 16.2082 0.5 16.204 0.5C16.1997 0.5 16.1954 0.5 16.1911 0.5C16.1868 0.5 16.1826 0.5 16.1783 0.5C16.174 0.5 16.1697 0.5 16.1654 0.5C16.1611 0.5 16.1569 0.5 16.1526 0.5C16.1483 0.5 16.144 0.5 16.1397 0.5C16.1354 0.5 16.1311 0.5 16.1268 0.5C16.1225 0.5 16.1182 0.5 16.1139 0.5C16.1096 0.5 16.1053 0.5 16.101 0.5C16.0967 0.5 16.0924 0.5 16.0881 0.5C16.0838 0.5 16.0795 0.5 16.0752 0.5C16.0709 0.5 16.0666 0.5 16.0623 0.5C16.058 0.5 16.0536 0.5 16.0493 0.5C16.045 0.5 16.0407 0.5 16.0364 0.5C16.0321 0.5 16.0278 0.5 16.0234 0.5C16.0191 0.5 16.0148 0.5 16.0105 0.5C16.0062 0.5 16.0018 0.5 15.9975 0.5C15.9932 0.5 15.9889 0.5 15.9845 0.5C15.9802 0.5 15.9759 0.5 15.9715 0.5C15.9672 0.5 15.9629 0.5 15.9585 0.5C15.9542 0.5 15.9499 0.5 15.9455 0.5C15.9412 0.5 15.9369 0.5 15.9325 0.5C15.9282 0.5 15.9239 0.5 15.9195 0.5C15.9152 0.5 15.9108 0.5 15.9065 0.5C15.9021 0.5 15.8978 0.5 15.8934 0.5C15.8891 0.5 15.8847 0.5 15.8804 0.5C15.876 0.5 15.8717 0.5 15.8673 0.5C15.863 0.5 15.8586 0.5 15.8543 0.5C15.8499 0.5 15.8456 0.5 15.8412 0.5C15.8368 0.5 15.8325 0.5 15.8281 0.5C15.8238 0.5 15.8194 0.5 15.815 0.5C15.8107 0.5 15.8063 0.5 15.8019 0.5C15.7976 0.5 15.7932 0.5 15.7888 0.5C15.7845 0.5 15.7801 0.5 15.7757 0.5C15.7713 0.5 15.767 0.5 15.7626 0.5C15.7582 0.5 15.7538 0.5 15.7495 0.5C15.7451 0.5 15.7407 0.5 15.7363 0.5C15.7319 0.5 15.7275 0.5 15.7232 0.5C15.7188 0.5 15.7144 0.5 15.71 0.5C15.7056 0.5 15.7012 0.5 15.6968 0.5C15.6925 0.5 15.6881 0.5 15.6837 0.5C15.6793 0.5 15.6749 0.5 15.6705 0.5C15.6661 0.5 15.6617 0.5 15.6573 0.5C15.6529 0.5 15.6485 0.5 15.6441 0.5C15.6397 0.5 15.6353 0.5 15.6309 0.5C15.6265 0.5 15.6221 0.5 15.6177 0.5C15.6133 0.5 15.6089 0.5 15.6045 0.5C15.6 0.5 15.5956 0.5 15.5912 0.5C15.5868 0.5 15.5824 0.5 15.578 0.5C15.5736 0.5 15.5692 0.5 15.5647 0.5C15.5603 0.5 15.5559 0.5 15.5515 0.5C15.5471 0.5 15.5426 0.5 15.5382 0.5C15.5338 0.5 15.5294 0.5 15.525 0.5C15.5205 0.5 15.5161 0.5 15.5117 0.5C15.5072 0.5 15.5028 0.5 15.4984 0.5C15.494 0.5 15.4895 0.5 15.4851 0.5C15.4807 0.5 15.4762 0.5 15.4718 0.5C15.4674 0.5 15.4629 0.5 15.4585 0.5C15.454 0.5 15.4496 0.5 15.4452 0.5C15.4407 0.5 15.4363 0.5 15.4318 0.5C15.4274 0.5 15.4229 0.5 15.4185 0.5C15.4141 0.5 15.4096 0.5 15.4052 0.5C15.4007 0.5 15.3963 0.5 15.3918 0.5C15.3874 0.5 15.3829 0.5 15.3785 0.5C15.374 0.5 15.3695 0.5 15.3651 0.5C15.3606 0.5 15.3562 0.5 15.3517 0.5C15.3473 0.5 15.3428 0.5 15.3383 0.5C15.3339 0.5 15.3294 0.5 15.3249 0.5C15.3205 0.5 15.316 0.5 15.3116 0.5C15.3071 0.5 15.3026 0.5 15.2982 0.5C15.2937 0.5 15.2892 0.5 15.2847 0.5C15.2803 0.5 15.2758 0.5 15.2713 0.5C15.2668 0.5 15.2624 0.5 15.2579 0.5C15.2534 0.5 15.2489 0.5 15.2445 0.5C15.24 0.5 15.2355 0.5 15.231 0.5C15.2265 0.5 15.2221 0.5 15.2176 0.5C15.2131 0.5 15.2086 0.5 15.2041 0.5C15.1996 0.5 15.1951 0.5 15.1907 0.5C15.1862 0.5 15.1817 0.5 15.1772 0.5C15.1727 0.5 15.1682 0.5 15.1637 0.5C15.1592 0.5 15.1547 0.5 15.1502 0.5C15.1457 0.5 15.1412 0.5 15.1367 0.5C15.1322 0.5 15.1277 0.5 15.1232 0.5C15.1187 0.5 15.1142 0.5 15.1097 0.5C15.1052 0.5 15.1007 0.5 15.0962 0.5C15.0917 0.5 15.0872 0.5 15.0827 0.5C15.0782 0.5 15.0737 0.5 15.0692 0.5C15.0646 0.5 15.0601 0.5 15.0556 0.5C15.0511 0.5 15.0466 0.5 15.0421 0.5C15.0376 0.5 15.033 0.5 15.0285 0.5C15.024 0.5 15.0195 0.5 15.015 0.5C15.0104 0.5 15.0059 0.5 15.0014 0.5C14.9969 0.5 14.9924 0.5 14.9878 0.5C14.9833 0.5 14.9788 0.5 14.9742 0.5C14.9697 0.5 14.9652 0.5 14.9607 0.5C14.9561 0.5 14.9516 0.5 14.9471 0.5C14.9425 0.5 14.938 0.5 14.9335 0.5C14.9289 0.5 14.9244 0.5 14.9199 0.5C14.9153 0.5 14.9108 0.5 14.9062 0.5C14.9017 0.5 14.8972 0.5 14.8926 0.5C14.8881 0.5 14.8835 0.5 14.879 0.5C14.8745 0.5 14.8699 0.5 14.8654 0.5C14.8608 0.5 14.8563 0.5 14.8517 0.5C14.8472 0.5 14.8426 0.5 14.8381 0.5C14.8335 0.5 14.829 0.5 14.8244 0.5C14.8199 0.5 14.8153 0.5 14.8107 0.5C14.8062 0.5 14.8016 0.5 14.7971 0.5C14.7925 0.5 14.788 0.5 14.7834 0.5C14.7788 0.5 14.7743 0.5 14.7697 0.5C14.7652 0.5 14.7606 0.5 14.756 0.5C14.7515 0.5 14.7469 0.5 14.7423 0.5C14.7378 0.5 14.7332 0.5 14.7286 0.5C14.7241 0.5 14.7195 0.5 14.7149 0.5C14.7103 0.5 14.7058 0.5 14.7012 0.5C14.6966 0.5 14.6921 0.5 14.6875 0.5C14.6829 0.5 14.6783 0.5 14.6737 0.5C14.6692 0.5 14.6646 0.5 14.66 0.5C14.6554 0.5 14.6508 0.5 14.6463 0.5C14.6417 0.5 14.6371 0.5 14.6325 0.5C14.6279 0.5 14.6233 0.5 14.6188 0.5C14.6142 0.5 14.6096 0.5 14.605 0.5C14.6004 0.5 14.5958 0.5 14.5912 0.5C14.5866 0.5 14.582 0.5 14.5774 0.5C14.5729 0.5 14.5683 0.5 14.5637 0.5C14.5591 0.5 14.5545 0.5 14.5499 0.5C14.5453 0.5 14.5407 0.5 14.5361 0.5C14.5315 0.5 14.5269 0.5 14.5223 0.5C14.5177 0.5 14.5131 0.5 14.5085 0.5C14.5039 0.5 14.4993 0.5 14.4947 0.5C14.49 0.5 14.4854 0.5 14.4808 0.5C14.4762 0.5 14.4716 0.5 14.467 0.5C14.4624 0.5 14.4578 0.5 14.4532 0.5C14.4486 0.5 14.4439 0.5 14.4393 0.5C14.4347 0.5 14.4301 0.5 14.4255 0.5C14.4209 0.5 14.4163 0.5 14.4116 0.5C14.407 0.5 14.4024 0.5 14.3978 0.5C14.3932 0.5 14.3885 0.5 14.3839 0.5C14.3793 0.5 14.3747 0.5 14.37 0.5C14.3654 0.5 14.3608 0.5 14.3562 0.5C14.3515 0.5 14.3469 0.5 14.3423 0.5C14.3376 0.5 14.333 0.5 14.3284 0.5C14.3238 0.5 14.3191 0.5 14.3145 0.5C14.3099 0.5 14.3052 0.5 14.3006 0.5C14.296 0.5 14.2913 0.5 14.2867 0.5C14.282 0.5 14.2774 0.5 14.2728 0.5C14.2681 0.5 14.2635 0.5 14.2588 0.5C14.2542 0.5 14.2496 0.5 14.2449 0.5C14.2403 0.5 14.2356 0.5 14.231 0.5C14.2263 0.5 14.2217 0.5 14.2171 0.5C14.2124 0.5 14.2078 0.5 14.2031 0.5C14.1985 0.5 14.1938 0.5 14.1892 0.5C14.1845 0.5 14.1799 0.5 14.1752 0.5C14.1706 0.5 14.1659 0.5 14.1612 0.5C14.1566 0.5 14.1519 0.5 14.1473 0.5C14.1426 0.5 14.138 0.5 14.1333 0.5C14.1286 0.5 14.124 0.5 14.1193 0.5C14.1147 0.5 14.11 0.5 14.1053 0.5C14.1007 0.5 14.096 0.5 14.0914 0.5C14.0867 0.5 14.082 0.5 14.0774 0.5C14.0727 0.5 14.068 0.5 14.0634 0.5C14.0587 0.5 14.054 0.5 14.0493 0.5C14.0447 0.5 14.04 0.5 14.0353 0.5C14.0307 0.5 14.026 0.5 14.0213 0.5C14.0166 0.5 14.012 0.5 14.0073 0.5C14.0026 0.5 13.9979 0.5 13.9933 0.5C13.9886 0.5 13.9839 0.5 13.9792 0.5C13.9745 0.5 13.9699 0.5 13.9652 0.5C13.9605 0.5 13.9558 0.5 13.9511 0.5C13.9465 0.5 13.9418 0.5 13.9371 0.5C13.9324 0.5 13.9277 0.5 13.923 0.5C13.9183 0.5 13.9137 0.5 13.909 0.5C13.9043 0.5 13.8996 0.5 13.8949 0.5C13.8902 0.5 13.8855 0.5 13.8808 0.5C13.8761 0.5 13.8714 0.5 13.8667 0.5C13.8621 0.5 13.8574 0.5 13.8527 0.5C13.848 0.5 13.8433 0.5 13.8386 0.5C13.8339 0.5 13.8292 0.5 13.8245 0.5C13.8198 0.5 13.8151 0.5 13.8104 0.5C13.8057 0.5 13.801 0.5 13.7963 0.5C13.7916 0.5 13.7869 0.5 13.7822 0.5C13.7775 0.5 13.7727 0.5 13.768 0.5C13.7633 0.5 13.7586 0.5 13.7539 0.5C13.7492 0.5 13.7445 0.5 13.7398 0.5C13.7351 0.5 13.7304 0.5 13.7257 0.5C13.721 0.5 13.7162 0.5 13.7115 0.5C13.7068 0.5 13.7021 0.5 13.6974 0.5C13.6927 0.5 13.688 0.5 13.6832 0.5C13.6785 0.5 13.6738 0.5 13.6691 0.5C13.6644 0.5 13.6596 0.5 13.6549 0.5C13.6502 0.5 13.6455 0.5 13.6408 0.5C13.636 0.5 13.6313 0.5 13.6266 0.5C13.6219 0.5 13.6171 0.5 13.6124 0.5C13.6077 0.5 13.603 0.5 13.5982 0.5C13.5935 0.5 13.5888 0.5 13.5841 0.5C13.5793 0.5 13.5746 0.5 13.5699 0.5C13.5651 0.5 13.5604 0.5 13.5557 0.5C13.5509 0.5 13.5462 0.5 13.5415 0.5C13.5368 0.5 13.532 0.5 13.5273 0.5C13.5225 0.5 13.5178 0.5 13.5131 0.5C13.5083 0.5 13.5036 0.5 13.4989 0.5C13.4941 0.5 13.4894 0.5 13.4846 0.5C13.4799 0.5 13.4752 0.5 13.4704 0.5C13.4657 0.5 13.4609 0.5 13.4562 0.5C13.4515 0.5 13.4467 0.5 13.442 0.5C13.4372 0.5 13.4325 0.5 13.4277 0.5C13.423 0.5 13.4182 0.5 13.4135 0.5C13.4087 0.5 13.404 0.5 13.3992 0.5C13.3945 0.5 13.3897 0.5 13.385 0.5C13.3802 0.5 13.3755 0.5 13.3707 0.5C13.366 0.5 13.3612 0.5 13.3565 0.5C13.3517 0.5 13.347 0.5 13.3422 0.5C13.3375 0.5 13.3327 0.5 13.3279 0.5C13.3232 0.5 13.3184 0.5 13.3137 0.5C13.3089 0.5 13.3042 0.5 13.2994 0.5C13.2946 0.5 13.2899 0.5 13.2851 0.5C13.2804 0.5 13.2756 0.5 13.2708 0.5C13.2661 0.5 13.2613 0.5 13.2565 0.5C13.2518 0.5 13.247 0.5 13.2422 0.5C13.2375 0.5 13.2327 0.5 13.2279 0.5C13.2232 0.5 13.2184 0.5 13.2136 0.5C13.2089 0.5 13.2041 0.5 13.1993 0.5C13.1946 0.5 13.1898 0.5 13.185 0.5C13.1802 0.5 13.1755 0.5 13.1707 0.5C13.1659 0.5 13.1611 0.5 13.1564 0.5C13.1516 0.5 13.1468 0.5 13.142 0.5C13.1373 0.5 13.1325 0.5 13.1277 0.5C13.1229 0.5 13.1182 0.5 13.1134 0.5C13.1086 0.5 13.1038 0.5 13.099 0.5C13.0943 0.5 13.0895 0.5 13.0847 0.5C13.0799 0.5 13.0751 0.5 13.0703 0.5C13.0656 0.5 13.0608 0.5 13.056 0.5C13.0512 0.5 13.0464 0.5 13.0416 0.5C13.0369 0.5 13.0321 0.5 13.0273 0.5C13.0225 0.5 13.0177 0.5 13.0129 0.5C13.0081 0.5 13.0033 0.5 12.9985 0.5C12.9938 0.5 12.989 0.5 12.9842 0.5C12.9794 0.5 12.9746 0.5 12.9698 0.5C12.965 0.5 12.9602 0.5 12.9554 0.5C12.9506 0.5 12.9458 0.5 12.941 0.5C12.9362 0.5 12.9314 0.5 12.9266 0.5C12.9218 0.5 12.9171 0.5 12.9123 0.5C12.9075 0.5 12.9027 0.5 12.8979 0.5C12.8931 0.5 12.8883 0.5 12.8835 0.5C12.8787 0.5 12.8739 0.5 12.8691 0.5C12.8642 0.5 12.8594 0.5 12.8546 0.5C12.8498 0.5 12.845 0.5 12.8402 0.5C12.8354 0.5 12.8306 0.5 12.8258 0.5C12.821 0.5 12.8162 0.5 12.8114 0.5C12.8066 0.5 12.8018 0.5 12.797 0.5C12.7922 0.5 12.7874 0.5 12.7825 0.5C12.7777 0.5 12.7729 0.5 12.7681 0.5C12.7633 0.5 12.7585 0.5 12.7537 0.5C12.7489 0.5 12.7441 0.5 12.7392 0.5C12.7344 0.5 12.7296 0.5 12.7248 0.5C12.72 0.5 12.7152 0.5 12.7104 0.5C12.7055 0.5 12.7007 0.5 12.6959 0.5C12.6911 0.5 12.6863 0.5 12.6814 0.5C12.6766 0.5 12.6718 0.5 12.667 0.5L12.667 2.5ZM19.1223 24.5C17.4453 24.5 15.1346 24.5 12.667 24.5L12.667 26.5C15.1346 26.5 17.4453 26.5 19.1223 26.5L19.1223 24.5ZM21.0726 4.2407C21.3319 6.79457 21.667 10.6531 21.667 13.5L23.667 13.5C23.667 10.5426 23.322 6.59558 23.0624 4.03867L21.0726 4.2407ZM21.667 13.5C21.667 16.3469 21.3319 20.2054 21.0726 22.7593L23.0624 22.9613C23.322 20.4044 23.667 16.4574 23.667 13.5L21.667 13.5ZM19.1223 26.5C21.142 26.5 22.8563 24.991 23.0624 22.9613L21.0726 22.7593C20.9723 23.7476 20.1361 24.5 19.1223 24.5L19.1223 26.5ZM19.1223 2.5C20.1361 2.5 20.9723 3.25237 21.0726 4.2407L23.0624 4.03867C22.8563 2.009 21.142 0.5 19.1223 0.5L19.1223 2.5Z" fill="white"/>
</svg>
