<svg width="91" height="97" viewBox="0 0 91 97" fill="none" xmlns="http://www.w3.org/2000/svg">
<path d="M49.7063 31.2237C61.9758 21.2589 76.2073 20.8757 90.8285 22.4224C90.8285 23.7638 90.8285 25.1052 90.8285 26.4466C86.8776 36.3292 83.2357 46.3077 80.7764 56.7105C79.567 61.816 78.3575 67.1132 72.6864 69.317C69.6358 68.5368 66.5852 67.7702 63.5212 67.0037C59.0193 65.4296 54.5308 63.8418 50.0288 62.2677C52.6359 52.0155 52.9316 41.8044 49.3972 31.6754L49.7063 31.2237Z" fill="#E3A505"~/>
<path d="M49.7052 31.2244C49.7052 31.2244 49.423 31.6761 49.423 31.6898C33.5923 44.789 27.76 61.0776 34.2105 81.2946C16.9822 86.5918 6.67475 82.9645 1.56807 69.7831C0.38547 66.717 -1.36155 63.5825 1.75621 60.5711C4.16172 65.6356 6.93008 70.3443 13.5956 68.5375C17.9094 67.374 20.1268 64.1026 19.979 59.5446C19.7908 53.3987 16.2027 50.6064 10.4913 50.1957C8.01861 46.459 6.63443 42.5306 7.95142 37.9451C11.0289 27.2549 14.4557 16.6468 16.915 5.80604C18.3395 -0.449309 21.0675 0.426713 25.1663 2.41145C37.4761 8.37936 44.4642 19.0148 49.7052 31.2244Z" fill="#72BD49"~/>
<path d="M34.212 81.2937C27.7615 61.0768 33.5804 44.7882 49.4245 31.689C52.9455 41.8043 52.6632 52.0154 50.0427 62.2676C47.8388 70.9047 41.6839 76.3661 35.2065 81.5675L34.6689 81.5812L34.212 81.2937Z" fill="#74559C"~/>
<path d="M35.1909 81.5677C41.6683 76.3663 47.8232 70.9049 50.0272 62.2678C54.5291 63.8419 62.5116 66.251 67.0136 67.8251C63.412 71.9862 55.0935 74.9838 57.7947 81.554C60.0792 87.0976 65.9519 86.9744 71.7037 86.6048C62.3907 96.7475 55.0398 99.5535 44.141 90.8344C40.8351 88.1789 38.1609 84.6748 35.1909 81.5677Z" fill="#2FAADE"~/>
<path d="M11.2842 68.9476C16.7764 68.9476 21.2288 64.4126 21.2288 58.8185C21.2288 53.2244 16.7764 48.6895 11.2842 48.6895C5.79195 48.6895 1.3396 53.2244 1.3396 58.8185C1.3396 64.4126 5.79195 68.9476 11.2842 68.9476Z" fill="#F5EA27"~/>
<path d="M66.571 88.0696C72.0632 88.0696 76.5156 83.5347 76.5156 77.9406C76.5156 72.3465 72.0632 67.8115 66.571 67.8115C61.0788 67.8115 56.6265 72.3465 56.6265 77.9406C56.6265 83.5347 61.0788 88.0696 66.571 88.0696Z" fill="#74559C"~/>
</svg>
