<svg width="88" height="88" viewBox="0 0 88 88" fill="none" xmlns="http://www.w3.org/2000/svg">
<path d="M59.4688 54.8281C58.5197 54.8281 57.75 55.5976 57.75 56.5469V68.4062C57.75 73.1448 53.8948 77 49.1562 77H30.5992C29.6503 77 28.8812 77.7688 28.8805 78.7175L28.8781 82.1348L24.7758 78.0326C24.5102 77.423 23.9025 77 23.1995 77H12.0312C7.29266 77 3.4375 73.1448 3.4375 68.4062V41.9375C3.4375 37.1989 7.29266 33.3438 12.0312 33.3438H29.3906C30.3397 33.3438 31.1094 32.5743 31.1094 31.625C31.1094 30.6757 30.3397 29.9062 29.3906 29.9062H12.0312C5.39722 29.9062 0 35.3035 0 41.9375V68.4062C0 75.0403 5.39722 80.4375 12.0312 80.4375H22.3193L29.3784 87.4966C29.7072 87.8254 30.1467 88 30.5941 88C30.8153 88 31.0386 87.9572 31.2508 87.8694C31.8931 87.6037 32.312 86.9773 32.3125 86.2825L32.3166 80.4375H49.1562C55.7903 80.4375 61.1875 75.0403 61.1875 68.4062V56.5469C61.1875 55.5976 60.4178 54.8281 59.4688 54.8281Z" fill="url(#paint0_linear)"~/>
<path d="M63.0188 0H58.6688C44.8941 0 33.6875 11.2066 33.6875 24.9813C33.6875 38.7561 44.8941 49.9625 58.6687 49.9625H63.0187C65.1686 49.9625 67.2966 49.6894 69.3591 49.1497L75.785 55.572C76.1138 55.9005 76.5531 56.0751 77.0003 56.0751C77.2219 56.0751 77.4453 56.0323 77.6579 55.9441C78.3001 55.678 78.7188 55.0514 78.7188 54.3563V44.4123C81.4394 42.2091 83.6993 39.4259 85.2854 36.3167C87.0868 32.7853 88 28.9716 88 24.9813C88 11.2066 76.7934 0 63.0188 0ZM75.9658 42.2013C75.5349 42.526 75.2812 43.0344 75.2812 43.5743V50.2086L71.0753 46.0049C70.748 45.678 70.3091 45.5018 69.8601 45.5018C69.6917 45.5018 69.5215 45.5268 69.3555 45.5778C67.3097 46.2065 65.1777 46.5252 63.0188 46.5252H58.6688C46.7894 46.5252 37.125 36.8607 37.125 24.9813C37.125 13.102 46.7895 3.4375 58.6688 3.4375H63.0188C74.8981 3.4375 84.5625 13.102 84.5625 24.9813C84.5625 31.8101 81.4292 38.0866 75.9658 42.2013Z" fill="url(#paint1_linear)"~/>
<path d="M68.5835 18.8067C68.3355 15.2085 65.4349 12.308 61.8365 12.06C59.7967 11.9199 57.8501 12.6079 56.3601 13.9989C54.8906 15.3706 54.0479 17.3097 54.0479 19.3191C54.0479 20.2684 54.8175 21.0379 55.7666 21.0379C56.7157 21.0379 57.4854 20.2684 57.4854 19.3191C57.4854 18.2433 57.9188 17.2463 58.7057 16.5119C59.4918 15.7781 60.5193 15.415 61.6004 15.4896C63.4958 15.6202 65.0236 17.148 65.1542 19.0432C65.2862 20.9574 64.0304 22.649 62.1683 23.0656C60.6595 23.4032 59.6059 24.7143 59.6059 26.2537V30.383C59.6059 31.3323 60.3756 32.1018 61.3247 32.1018C62.274 32.1018 63.0434 31.3323 63.0433 30.383V26.3911C66.5066 25.5544 68.8301 22.3854 68.5835 18.8067Z" fill="url(#paint2_linear)"~/>
<path d="M62.5404 35.9666C62.2207 35.6469 61.7772 35.463 61.3252 35.463C60.8732 35.463 60.4297 35.6469 60.11 35.9666C59.7904 36.2863 59.6064 36.7297 59.6064 37.1818C59.6064 37.6355 59.7905 38.079 60.11 38.3986C60.4297 38.7183 60.8732 38.9005 61.3252 38.9005C61.7772 38.9005 62.2207 38.7183 62.5404 38.3986C62.86 38.0772 63.0439 37.6355 63.0439 37.1818C63.0439 36.7297 62.8599 36.2863 62.5404 35.9666Z" fill="url(#paint3_linear)"~/>
<path d="M47.2656 53.2812H11C10.0509 53.2812 9.28125 54.0507 9.28125 55C9.28125 55.9493 10.0509 56.7188 11 56.7188H47.2656C48.2149 56.7188 48.9844 55.9493 48.9844 55C48.9844 54.0507 48.2147 53.2812 47.2656 53.2812Z" fill="url(#paint4_linear)"~/>
<path d="M48.4806 63.4098C48.1611 63.0902 47.7177 62.9062 47.2656 62.9062C46.8136 62.9062 46.3702 63.0902 46.0505 63.4098C45.7306 63.7295 45.5469 64.173 45.5469 64.625C45.5469 65.077 45.7308 65.5205 46.0505 65.8402C46.3702 66.1598 46.8136 66.3438 47.2656 66.3438C47.7177 66.3438 48.1611 66.1598 48.4806 65.8402C48.8005 65.5205 48.9844 65.0788 48.9844 64.625C48.9844 64.173 48.8003 63.7295 48.4806 63.4098Z" fill="url(#paint5_linear)"~/>
<path d="M40.5053 62.9062H11C10.0509 62.9062 9.28125 63.6757 9.28125 64.625C9.28125 65.5743 10.0509 66.3438 11 66.3438H40.5053C41.4545 66.3438 42.224 65.5743 42.224 64.625C42.224 63.6757 41.4544 62.9062 40.5053 62.9062Z" fill="url(#paint6_linear)"~/>
<path d="M36.0938 43.6562H11C10.0509 43.6562 9.28125 44.4257 9.28125 45.375C9.28125 46.3243 10.0509 47.0938 11 47.0938H36.0938C37.043 47.0938 37.8125 46.3243 37.8125 45.375C37.8125 44.4257 37.0428 43.6562 36.0938 43.6562Z" fill="url(#paint7_linear)"~/>
<defs>
<linearGradient id="paint0_linear" x1="0" y1="29.9063" x2="72.7742" y2="58.2414" gradientUnits="userSpaceOnUse">
<stop stop-color="#36849A"~/>
<stop offset="1" stop-color="#61B8C4"~/>
</linearGradient>
<linearGradient id="paint1_linear" x1="33.6875" y1="0" x2="99.6246" y2="23.6088" gradientUnits="userSpaceOnUse">
<stop stop-color="#36849A"~/>
<stop offset="1" stop-color="#61B8C4"~/>
</linearGradient>
<linearGradient id="paint2_linear" x1="54.0479" y1="12.0421" x2="72.6438" y2="17.0296" gradientUnits="userSpaceOnUse">
<stop stop-color="#36849A"~/>
<stop offset="1" stop-color="#61B8C4"~/>
</linearGradient>
<linearGradient id="paint3_linear" x1="59.6064" y1="35.463" x2="63.7486" y2="36.9943" gradientUnits="userSpaceOnUse">
<stop stop-color="#36849A"~/>
<stop offset="1" stop-color="#61B8C4"~/>
</linearGradient>
<linearGradient id="paint4_linear" x1="9.28125" y1="53.2812" x2="12.1091" y2="65.3553" gradientUnits="userSpaceOnUse">
<stop stop-color="#36849A"~/>
<stop offset="1" stop-color="#61B8C4"~/>
</linearGradient>
<linearGradient id="paint5_linear" x1="45.5469" y1="62.9062" x2="49.6891" y2="64.4375" gradientUnits="userSpaceOnUse">
<stop stop-color="#36849A"~/>
<stop offset="1" stop-color="#61B8C4"~/>
</linearGradient>
<linearGradient id="paint6_linear" x1="9.28125" y1="62.9062" x2="12.611" y2="74.7027" gradientUnits="userSpaceOnUse">
<stop stop-color="#36849A"~/>
<stop offset="1" stop-color="#61B8C4"~/>
</linearGradient>
<linearGradient id="paint7_linear" x1="9.28125" y1="43.6562" x2="13.0336" y2="55.1696" gradientUnits="userSpaceOnUse">
<stop stop-color="#36849A"~/>
<stop offset="1" stop-color="#61B8C4"~/>
</linearGradient>
</defs>
</svg>
