<svg width="25" height="40" viewBox="0 0 25 40" fill="none" xmlns="http://www.w3.org/2000/svg">
<path d="M1.44849 29.8805C1.44849 35.3023 5.80515 39.7095 11.1647 39.7095H14.5185C19.878 39.7095 24.2347 35.3023 24.2347 29.8805V24.2925H1.44849V29.8805ZM3.75012 26.6042H21.933V29.8805C21.933 34.0217 18.6121 37.3812 14.5185 37.3812H11.1647C7.07105 37.3812 3.75012 34.0217 3.75012 29.8805V26.6042Z" fill="white"~/>
<path d="M21.933 12.9999L21.4562 12.9001V12.5509C21.4562 10.921 21.0123 9.39095 20.2397 8.09372L20.5685 7.74447L22.081 6.09799L22.5249 5.59905L21.9166 4.75087L21.3083 5.0336L19.2697 5.96494L18.7107 6.21441C17.4448 5.01697 15.8172 4.18541 14.0252 3.93594L13.9102 3.37048L13.4992 1.35812L13.3512 0.692871H12.3319L12.1839 1.35812L11.7565 3.35385L11.6414 3.91931C9.83298 4.18541 8.20539 5.01696 6.92305 6.23104L6.15036 5.89841L4.29262 5.10012L3.68432 4.83402L3.09248 5.66558L3.53637 6.16451L4.88447 7.69458L5.37768 8.2434C4.65431 9.524 4.2433 10.9875 4.2433 12.5509V12.8835L3.71721 12.9833L1.53066 13.4323L0.873047 13.5654V14.6131L1.53066 14.7462L3.71721 15.1952L4.2433 15.295V20.4008H6.52849V12.5509C6.52849 9.02507 9.37266 6.14788 12.858 6.14788C16.3433 6.14788 19.1875 9.02507 19.1875 12.5509V20.4008H21.4727V15.295L21.9494 15.1952L24.136 14.7462L24.7936 14.6131V13.5654L24.136 13.4323L21.933 12.9999Z" fill="white"~/>
</svg>
