<svg width="276" height="56" viewBox="0 0 276 56" fill="none" xmlns="http://www.w3.org/2000/svg">
<g clip-path="url(#clip0)">
<path d="M193.513 22.2329H190.074V22.7105C190.074 23.7851 189.763 24.6687 189.166 25.3851C188.569 26.1015 187.638 26.4597 186.372 26.4597C185.13 26.4597 184.175 26.0776 183.458 25.3135C182.766 24.5493 182.408 23.5224 182.408 22.2329V17.6956C182.408 16.406 182.766 15.3553 183.458 14.615C184.151 13.8508 185.13 13.4687 186.372 13.4687C187.614 13.4687 188.545 13.8269 189.166 14.5194C189.763 15.212 190.074 16.1194 190.074 17.2179V17.4806H193.513V17.3135C193.513 15.1403 192.892 13.4448 191.65 12.203C190.408 10.9612 188.665 10.3403 186.396 10.3403C184.103 10.3403 182.288 10.9851 180.951 12.2508C179.614 13.5165 178.945 15.3553 178.945 17.7194V22.1612C178.945 24.5254 179.614 26.3642 180.951 27.6299C182.288 28.8956 184.103 29.5403 186.396 29.5403C188.665 29.5403 190.432 28.9194 191.65 27.6776C192.868 26.4359 193.513 24.7403 193.513 22.5672V22.2329Z" fill="white"/>
<path d="M199.483 25.1462H206.074L207.078 29.2059H210.66L205.812 10.7462H199.746L194.874 29.2059H198.456L199.483 25.1462ZM202.54 12.9193H203.018L205.263 21.9223H200.295L202.54 12.9193Z" fill="white"/>
<path d="M219.735 10.3641C217.442 10.3641 215.627 11.0089 214.29 12.2746C212.952 13.5403 212.284 15.3791 212.284 17.7432V22.185C212.284 24.5492 212.952 26.388 214.29 27.6537C215.627 28.9194 217.442 29.5641 219.735 29.5641C222.003 29.5641 223.771 28.9432 224.989 27.7014C226.207 26.4597 226.851 24.7641 226.851 22.591V22.2328H223.413V22.7104C223.413 23.785 223.102 24.6686 222.505 25.385C221.908 26.1014 220.977 26.4597 219.711 26.4597C218.469 26.4597 217.514 26.0776 216.797 25.3134C216.105 24.5492 215.747 23.5223 215.747 22.2328V17.6955C215.747 16.4059 216.105 15.3552 216.797 14.6149C217.49 13.8507 218.469 13.4686 219.711 13.4686C220.953 13.4686 221.884 13.8268 222.505 14.5194C223.102 15.2119 223.413 16.1194 223.413 17.2179V17.4806H226.851V17.3134C226.851 15.1403 226.231 13.4447 224.989 12.2029C223.747 10.9611 222.003 10.3641 219.735 10.3641Z" fill="white"/>
<path d="M228.237 13.8985H233.61V29.2059H237.097V13.8985H242.494V10.7462H228.237V13.8985Z" fill="white"/>
<path d="M259.211 10.7462H255.724V22.8298C255.724 23.9522 255.414 24.8358 254.769 25.5044C254.124 26.1492 253.193 26.4835 251.975 26.4835C250.757 26.4835 249.826 26.1492 249.181 25.5044C248.536 24.8596 248.225 23.9761 248.225 22.8298V10.7462H244.739V22.7343C244.739 24.1432 245.025 25.3611 245.599 26.388C246.172 27.4149 247.008 28.2029 248.082 28.7522C249.157 29.3014 250.47 29.588 251.975 29.588C253.479 29.588 254.793 29.3014 255.868 28.7522C256.942 28.2029 257.778 27.4149 258.351 26.388C258.925 25.3611 259.211 24.1432 259.211 22.7343V10.7462Z" fill="white"/>
<path d="M275.164 21.1104C274.615 20.394 273.851 19.8208 272.871 19.3671C271.892 18.9373 270.746 18.5552 269.433 18.2925L268.835 18.1492C268.095 17.982 267.498 17.8149 267.02 17.6C266.543 17.385 266.185 17.1223 265.946 16.8119C265.707 16.5014 265.588 16.1194 265.588 15.6417C265.588 14.9492 265.85 14.4238 266.328 14.0179C266.829 13.6119 267.618 13.4209 268.668 13.4209C269.361 13.4209 269.982 13.5164 270.483 13.7313C270.985 13.9223 271.391 14.2567 271.654 14.6865C271.916 15.1164 272.06 15.6895 272.06 16.382V17.1701H275.498V16.382C275.498 15.0447 275.212 13.9223 274.615 13.0388C274.018 12.1552 273.206 11.4865 272.179 11.0328C271.152 10.5791 269.982 10.3641 268.668 10.3641C267.355 10.3641 266.209 10.5791 265.229 11.0089C264.25 11.4388 263.486 12.0597 262.961 12.8477C262.435 13.6597 262.149 14.6149 262.149 15.7373C262.149 16.8597 262.387 17.7671 262.865 18.4835C263.343 19.1761 264.035 19.7492 264.943 20.1791C265.85 20.6089 266.925 20.9671 268.191 21.2537L268.788 21.397C269.576 21.5641 270.245 21.7552 270.818 21.9701C271.367 22.1611 271.797 22.4238 272.083 22.7582C272.37 23.0686 272.513 23.4985 272.513 24C272.513 24.7403 272.227 25.3373 271.63 25.8149C271.033 26.2925 270.149 26.5313 268.955 26.5313C267.785 26.5313 266.853 26.2447 266.161 25.6955C265.468 25.1462 265.134 24.3104 265.134 23.2119V22.4477H261.743V23.188C261.743 24.5253 262.053 25.6716 262.674 26.6268C263.295 27.582 264.131 28.2985 265.229 28.8238C266.328 29.3253 267.57 29.588 269.003 29.588C270.436 29.588 271.654 29.3492 272.704 28.8716C273.755 28.394 274.567 27.7253 275.14 26.8656C275.713 26.0059 276 25.0268 276 23.9044C276 22.7582 275.713 21.8268 275.164 21.1104Z" fill="white"/>
<path d="M128.483 41.9105C128.483 49.6955 134.812 56.0239 142.597 56.0239H147.469C155.254 56.0239 161.583 49.6955 161.583 41.9105V33.8866H128.483V41.9105ZM131.827 37.206H158.24V41.9105C158.24 47.8567 153.416 52.6806 147.469 52.6806H142.597C136.651 52.6806 131.827 47.8567 131.827 41.9105V37.206Z" fill="white"/>
<path d="M158.24 17.6716L157.547 17.5284V17.0269C157.547 14.6866 156.902 12.4896 155.78 10.6269L156.257 10.1254L158.455 7.76119L159.099 7.04478L158.216 5.82687L157.332 6.23284L154.371 7.57015L153.559 7.92836C151.72 6.20896 149.356 5.01493 146.753 4.65672L146.585 3.84478L145.988 0.955224L145.773 0H144.293L144.078 0.955224L143.457 3.8209L143.29 4.63284C140.663 5.01493 138.298 6.20896 136.436 7.95224L135.313 7.47463L132.615 6.32836L131.731 5.94627L130.871 7.1403L131.516 7.85672L133.474 10.0537L134.191 10.8418C133.14 12.6806 132.543 14.7821 132.543 17.0269V17.5045L131.779 17.6478L128.602 18.2925L127.647 18.4836V19.9881L128.602 20.1791L131.779 20.8239L132.543 20.9672V28.2985H135.863V17.0269C135.863 11.9642 139.994 7.83284 145.057 7.83284C150.12 7.83284 154.251 11.9642 154.251 17.0269V28.2985H157.571V20.9672L158.263 20.8239L161.44 20.1791L162.395 19.9881V18.4836L161.44 18.2925L158.24 17.6716Z" fill="white"/>
<path d="M198.409 44.1074H198.265L196.689 38.5432H195.423L193.871 44.1074H193.704L192.51 38.5432H191.746L193.107 44.6089H194.42L195.997 39.0447H196.14L197.692 44.6089H199.006L200.391 38.5432H199.603L198.409 44.1074Z" fill="white"/>
<path d="M206.266 38.7343C205.836 38.4955 205.334 38.3761 204.761 38.3761C204.188 38.3761 203.663 38.4955 203.209 38.7582C202.755 39.0209 202.397 39.3791 202.134 39.8567C201.871 40.3343 201.752 40.8836 201.752 41.5045V41.6477C201.752 42.2686 201.871 42.8179 202.134 43.2955C202.397 43.7731 202.755 44.1313 203.209 44.394C203.663 44.6567 204.212 44.7761 204.833 44.7761C205.382 44.7761 205.812 44.6806 206.17 44.5134C206.528 44.3462 206.815 44.1313 207.03 43.8686C207.245 43.6059 207.412 43.3433 207.555 43.0567L206.887 42.7462C206.719 43.1283 206.481 43.4388 206.17 43.7015C205.86 43.9642 205.43 44.0836 204.857 44.0836C204.188 44.0836 203.639 43.8686 203.209 43.4627C202.779 43.0567 202.54 42.4597 202.516 41.6955H207.699V41.2895C207.699 40.6686 207.579 40.1433 207.316 39.6895C207.054 39.2358 206.695 38.9731 206.266 38.7343ZM202.516 41.0985C202.612 40.4298 202.851 39.9283 203.257 39.5701C203.662 39.2119 204.164 39.0448 204.761 39.0448C205.382 39.0448 205.884 39.2119 206.266 39.5701C206.648 39.9283 206.863 40.4298 206.91 41.0985H202.516Z" fill="white"/>
<path d="M214.266 38.7582C213.812 38.4955 213.335 38.3761 212.785 38.3761C212.355 38.3761 211.973 38.4478 211.663 38.5672C211.352 38.6866 211.09 38.8537 210.899 39.0209C210.708 39.2119 210.54 39.403 210.445 39.6179H210.302V35.8687H209.561V44.609H210.278V43.4866H210.421C210.588 43.8209 210.875 44.1075 211.233 44.3701C211.615 44.6328 212.117 44.7522 212.785 44.7522C213.335 44.7522 213.812 44.6328 214.266 44.3701C214.696 44.1075 215.054 43.7493 215.317 43.2716C215.579 42.794 215.699 42.2448 215.699 41.6V41.4567C215.699 40.8119 215.579 40.2627 215.317 39.7851C215.054 39.3552 214.696 38.997 214.266 38.7582ZM214.911 41.6239C214.911 42.3881 214.696 43.009 214.266 43.4388C213.836 43.8687 213.287 44.1075 212.594 44.1075C211.902 44.1075 211.352 43.8925 210.923 43.4388C210.493 43.009 210.278 42.3881 210.278 41.6239V41.5284C210.278 40.7642 210.493 40.1433 210.923 39.7134C211.352 39.2836 211.926 39.0448 212.594 39.0448C213.287 39.0448 213.836 39.2597 214.266 39.7134C214.696 40.1672 214.911 40.7642 214.911 41.5284V41.6239Z" fill="white"/>
<path d="M225.633 43.5821V40.621C225.633 39.9045 225.418 39.3553 225.012 38.9493C224.583 38.5433 224.009 38.3523 223.221 38.3523C222.72 38.3523 222.29 38.4478 221.932 38.615C221.573 38.7821 221.287 39.021 221.072 39.3075C220.857 39.5941 220.69 39.9284 220.594 40.2866L221.311 40.5015C221.43 40.0717 221.621 39.7135 221.932 39.4508C222.242 39.1881 222.672 39.0687 223.197 39.0687C223.747 39.0687 224.153 39.212 224.439 39.4747C224.726 39.7612 224.869 40.1433 224.869 40.621V41.0986H222.648C222.242 41.0986 221.86 41.1702 221.502 41.2896C221.167 41.4329 220.881 41.6239 220.69 41.8866C220.499 42.1493 220.379 42.4836 220.379 42.8896C220.379 43.2956 220.475 43.6299 220.69 43.9165C220.881 44.203 221.167 44.418 221.502 44.5612C221.836 44.7045 222.242 44.7762 222.648 44.7762C223.054 44.7762 223.412 44.7284 223.675 44.609C223.962 44.4896 224.177 44.3702 224.344 44.1792C224.511 44.012 224.654 43.8209 224.774 43.6299H224.893V43.7254C224.893 43.9881 224.965 44.203 225.108 44.3463C225.251 44.4896 225.466 44.5851 225.729 44.5851H226.517V43.9404H225.92C225.753 43.9642 225.633 43.8448 225.633 43.5821ZM224.893 41.8866C224.893 42.603 224.702 43.1523 224.296 43.5344C223.89 43.9165 223.389 44.1075 222.744 44.1075C222.29 44.1075 221.908 44.012 221.621 43.7971C221.335 43.5821 221.167 43.2717 221.167 42.8896C221.167 42.5075 221.311 42.1971 221.597 42.0299C221.884 41.8389 222.242 41.7433 222.672 41.7433H224.893V41.8866Z" fill="white"/>
<path d="M232.965 39.6657H232.822C232.655 39.3314 232.368 39.0448 232.01 38.7821C231.628 38.5194 231.126 38.4 230.458 38.4C229.908 38.4 229.431 38.5194 228.977 38.7821C228.547 39.0209 228.189 39.3791 227.926 39.8329C227.663 40.2866 227.544 40.8358 227.544 41.4806V41.6239C227.544 42.2687 227.663 42.794 227.926 43.2717C228.189 43.7254 228.547 44.0836 228.977 44.3463C229.431 44.5851 229.908 44.7284 230.458 44.7284C230.911 44.7284 231.293 44.6567 231.604 44.5373C231.914 44.4179 232.153 44.2508 232.368 44.0597C232.559 43.8687 232.726 43.6776 232.822 43.4627H232.965V46.0657C232.965 46.3045 232.846 46.4478 232.583 46.4478H228.547V47.1164H232.702C233.037 47.1164 233.276 47.0448 233.419 46.8776C233.586 46.7105 233.658 46.4717 233.658 46.1851V38.5672H232.965V39.6657ZM232.941 41.5761C232.941 42.3403 232.726 42.9373 232.296 43.3672C231.867 43.797 231.317 44.012 230.625 44.012C229.932 44.012 229.383 43.797 228.953 43.3672C228.523 42.9373 228.308 42.3403 228.308 41.5761V41.4806C228.308 40.7164 228.523 40.1194 228.953 39.6896C229.383 39.2597 229.956 39.0448 230.625 39.0448C231.317 39.0448 231.867 39.2597 232.296 39.6896C232.726 40.1194 232.941 40.7164 232.941 41.4806V41.5761Z" fill="white"/>
<path d="M240.082 38.7343C239.652 38.4955 239.151 38.3761 238.577 38.3761C238.004 38.3761 237.479 38.4955 237.025 38.7582C236.571 39.0209 236.213 39.3791 235.95 39.8567C235.688 40.3343 235.568 40.8836 235.568 41.5045V41.6477C235.568 42.2686 235.688 42.8179 235.95 43.2955C236.213 43.7731 236.571 44.1313 237.025 44.394C237.479 44.6567 238.028 44.7761 238.649 44.7761C239.198 44.7761 239.628 44.6806 239.986 44.5134C240.345 44.3462 240.631 44.1313 240.846 43.8686C241.061 43.6059 241.228 43.3433 241.372 43.0567L240.703 42.7462C240.536 43.1283 240.297 43.4388 239.986 43.7015C239.676 43.9642 239.246 44.0836 238.673 44.0836C238.004 44.0836 237.455 43.8686 237.025 43.4627C236.595 43.0567 236.356 42.4597 236.333 41.6955H241.515V41.2895C241.515 40.6686 241.395 40.1433 241.133 39.6895C240.87 39.2358 240.512 38.9731 240.082 38.7343ZM236.333 41.0985C236.428 40.4298 236.667 39.9283 237.073 39.5701C237.479 39.2119 237.98 39.0448 238.577 39.0448C239.198 39.0448 239.7 39.2119 240.082 39.5701C240.464 39.9283 240.679 40.4298 240.727 41.0985H236.333Z" fill="white"/>
<path d="M247.652 38.6866C247.294 38.4955 246.888 38.4 246.435 38.4C245.79 38.4 245.288 38.5194 244.954 38.7821C244.619 39.0448 244.357 39.3314 244.213 39.6418H244.07V38.5194H243.354V44.5851H244.094V41.5523C244.094 40.7164 244.309 40.0955 244.715 39.6896C245.121 39.2836 245.646 39.0687 246.267 39.0687C246.817 39.0687 247.27 39.212 247.605 39.4985C247.939 39.7851 248.106 40.2627 248.106 40.9314V44.5851H248.847V40.8836C248.847 40.3344 248.727 39.8567 248.512 39.4985C248.297 39.1642 248.011 38.8776 247.652 38.6866Z" fill="white"/>
<path d="M255.294 43.606C254.936 43.9403 254.435 44.1313 253.766 44.1313C253.336 44.1313 252.93 44.0358 252.572 43.8209C252.214 43.606 251.951 43.3194 251.736 42.9612C251.521 42.5791 251.426 42.1492 251.426 41.6477V41.5522C251.426 41.0507 251.521 40.597 251.736 40.2388C251.951 39.8567 252.214 39.5701 252.572 39.3791C252.93 39.1642 253.312 39.0686 253.766 39.0686C254.22 39.0686 254.578 39.1403 254.889 39.3074C255.199 39.4746 255.414 39.6895 255.581 39.9522C255.748 40.2149 255.844 40.5254 255.892 40.8358L256.632 40.6925C256.584 40.3104 256.441 39.9283 256.202 39.5701C255.963 39.2119 255.653 38.9254 255.247 38.7104C254.841 38.4955 254.339 38.3761 253.766 38.3761C253.169 38.3761 252.644 38.4955 252.19 38.7582C251.736 39.0209 251.354 39.3791 251.091 39.8567C250.829 40.3343 250.685 40.8836 250.685 41.5283V41.6477C250.685 42.2925 250.829 42.8418 251.091 43.3194C251.354 43.797 251.712 44.1552 252.19 44.4179C252.644 44.6806 253.169 44.8 253.766 44.8C254.339 44.8 254.841 44.6806 255.247 44.4657C255.653 44.2507 255.963 43.9642 256.202 43.606C256.441 43.2477 256.584 42.8895 256.68 42.4836L255.939 42.3403C255.844 42.8418 255.629 43.2477 255.294 43.606Z" fill="white"/>
<path d="M263.199 41.6C263.199 42.4358 262.985 43.0567 262.579 43.4627C262.173 43.8686 261.647 44.0836 261.026 44.0836C260.477 44.0836 260.023 43.9403 259.689 43.6537C259.355 43.3671 259.187 42.8895 259.187 42.2209V38.5671H258.447V42.2686C258.447 42.8179 258.566 43.2955 258.781 43.6537C258.996 44.0119 259.307 44.2985 259.665 44.4895C260.047 44.6806 260.429 44.7761 260.883 44.7761C261.337 44.7761 261.671 44.7283 261.958 44.6089C262.244 44.4895 262.483 44.3462 262.65 44.1791C262.841 43.988 262.961 43.8209 263.08 43.6059H263.223V46.1134C263.223 46.3522 263.104 46.4955 262.841 46.4955H259.283V47.1642H262.984C263.319 47.1642 263.558 47.0925 263.725 46.9253C263.892 46.7582 263.964 46.5194 263.964 46.2328V38.6149H263.223V41.6H263.199Z" fill="white"/>
<path d="M180.043 41.8149L186.229 42.1731V40.3582L180.043 40.7164V41.8149Z" fill="white"/>
<path d="M268.859 42.1731L275.045 41.8149V40.7164L268.859 40.3582V42.1731Z" fill="white"/>
<path d="M8.76571 14.6865V7.14026H10.8673V21.9701H8.76571V18.985C8.45525 19.9641 7.92986 20.7283 7.21341 21.3015C6.49696 21.8746 5.6611 22.1612 4.70584 22.1612C3.39235 22.1612 2.29379 21.6597 1.41017 20.6328C0.526549 19.6298 0.0966797 18.3641 0.0966797 16.8358C0.0966797 15.3313 0.526549 14.0656 1.41017 13.0388C2.29379 12.0119 3.39235 11.5104 4.70584 11.5104C5.6611 11.5104 6.49696 11.797 7.21341 12.3701C7.92986 12.9432 8.45525 13.7074 8.76571 14.6865ZM5.3984 20.2029C6.37755 20.2029 7.18952 19.8925 7.81045 19.2477C8.45525 18.6029 8.76571 17.8149 8.76571 16.8358C8.76571 15.8567 8.45525 15.0447 7.81045 14.4238C7.16564 13.7791 6.37755 13.4686 5.3984 13.4686C4.51478 13.4686 3.77445 13.8029 3.15353 14.4477C2.53261 15.0925 2.22215 15.9044 2.22215 16.8597C2.22215 17.8149 2.53261 18.6029 3.15353 19.2477C3.77445 19.8925 4.51478 20.2029 5.3984 20.2029Z" fill="white"/>
<path d="M18.771 11.5104C20.4188 11.5104 21.7562 12.1074 22.7831 13.2775C23.81 14.4477 24.2399 15.8805 24.0488 17.5522H15.5708C15.7141 18.388 16.0962 19.0566 16.7171 19.5581C17.3381 20.0835 18.0784 20.3223 18.9381 20.3223C19.6068 20.3223 20.2039 20.1552 20.7293 19.8208C21.2547 19.4865 21.6606 19.0566 21.9711 18.4835L23.7383 19.2716C23.2846 20.1313 22.6398 20.8238 21.8039 21.3492C20.9681 21.8746 19.9889 22.1372 18.8904 22.1372C17.3619 22.1372 16.0723 21.6357 15.0215 20.6089C13.9708 19.6059 13.4692 18.3402 13.4692 16.8119C13.4692 15.3074 13.9708 14.0417 14.9977 13.0149C16.0007 12.0357 17.2664 11.5104 18.771 11.5104ZM18.771 13.3492C18.0067 13.3492 17.3142 13.588 16.7649 14.0656C16.1917 14.5432 15.8096 15.1641 15.6425 15.9283H21.9233C21.7562 15.1641 21.3741 14.5432 20.8009 14.0656C20.2277 13.588 19.5591 13.3492 18.771 13.3492Z" fill="white"/>
<path d="M26.0549 19.2477L28.1565 18.8179C28.3476 19.9164 29.0879 20.4656 30.4014 20.4656C31.0701 20.4656 31.5955 20.3462 32.0253 20.0836C32.4313 19.8209 32.6463 19.4865 32.6463 19.0806C32.6463 18.6507 32.4313 18.3403 32.0015 18.1015C31.5716 17.8865 31.0462 17.7194 30.4492 17.6239C29.8282 17.5283 29.2073 17.4089 28.5864 17.2418C27.9655 17.0985 27.4401 16.8119 27.0102 16.3821C26.5803 15.9522 26.3654 15.3552 26.3654 14.6388C26.3654 13.7552 26.7475 13.0149 27.5117 12.4179C28.2759 11.8209 29.2551 11.5343 30.4014 11.5343C31.5716 11.5343 32.503 11.797 33.2672 12.3224C34.0075 12.8477 34.4613 13.5403 34.6046 14.4477L32.503 14.8776C32.3358 13.7791 31.6432 13.2298 30.4253 13.2298C29.876 13.2298 29.3984 13.3492 29.0401 13.588C28.6819 13.8268 28.4909 14.1373 28.4909 14.5194C28.4909 14.8776 28.6342 15.1403 28.9446 15.3552C29.2551 15.5701 29.6372 15.7134 30.1148 15.785C30.5924 15.8567 31.094 15.9522 31.6194 16.0955C32.1686 16.2388 32.6701 16.3821 33.1239 16.5492C33.6015 16.7164 33.9836 17.003 34.2941 17.4328C34.6046 17.8627 34.7479 18.388 34.7479 19.0328C34.7479 19.9164 34.3419 20.6806 33.506 21.2776C32.6702 21.8746 31.6432 22.1612 30.4014 22.1612C29.1834 22.1612 28.2043 21.8985 27.4401 21.3731C26.6759 20.8477 26.2221 20.1552 26.0549 19.2477Z" fill="white"/>
<path d="M37.2554 9.69546C36.9927 9.43277 36.8733 9.14621 36.8733 8.76412C36.8733 8.40591 36.9927 8.09546 37.2554 7.83277C37.5181 7.57009 37.8286 7.45068 38.1868 7.45068C38.545 7.45068 38.8555 7.57009 39.1182 7.83277C39.3809 8.09546 39.5003 8.38203 39.5003 8.76412C39.5003 9.12233 39.3809 9.43277 39.1182 9.69546C38.8555 9.95815 38.5689 10.0775 38.1868 10.0775C37.8047 10.0775 37.4942 9.95815 37.2554 9.69546ZM39.2137 21.9462H37.1121V11.7253H39.2137V21.9462Z" fill="white"/>
<path d="M50.4618 14.6149V11.7253H52.5634V20.8477C52.5634 22.3522 52.038 23.6178 51.0111 24.6447C49.9603 25.6477 48.6707 26.1731 47.1423 26.1731C46.0676 26.1731 45.0884 25.9104 44.2526 25.385C43.3928 24.8596 42.7719 24.1671 42.342 23.2835L44.2526 22.3522C44.5392 22.9492 44.9213 23.4029 45.4228 23.7372C45.9243 24.0716 46.4974 24.2387 47.1661 24.2387C48.0975 24.2387 48.8856 23.9044 49.5304 23.2596C50.1752 22.6149 50.4857 21.8029 50.4857 20.8477V18.8417C50.1513 19.7731 49.6259 20.5134 48.9095 21.0865C48.193 21.6357 47.3572 21.9223 46.4258 21.9223C45.1123 21.9223 44.0138 21.4208 43.1301 20.4417C42.2465 19.4387 41.8167 18.1969 41.8167 16.7163C41.8167 15.2357 42.2465 13.994 43.1301 12.991C44.0138 11.988 45.1123 11.5104 46.4258 11.5104C47.3811 11.5104 48.2169 11.7969 48.9334 12.3462C49.6259 12.9193 50.1513 13.6835 50.4618 14.6149ZM47.1661 20.0119C48.1214 20.0119 48.9095 19.7014 49.5304 19.0805C50.1513 18.4596 50.4618 17.6716 50.4618 16.7402C50.4618 15.8089 50.1513 15.0208 49.5304 14.3999C48.9095 13.779 48.1214 13.4686 47.1661 13.4686C46.2586 13.4686 45.4944 13.779 44.8735 14.3999C44.2526 15.0208 43.9421 15.8089 43.9421 16.7163C43.9421 17.6477 44.2526 18.4357 44.8735 19.0566C45.4944 19.7014 46.2586 20.0119 47.1661 20.0119Z" fill="white"/>
<path d="M61.304 11.5104C62.4742 11.5104 63.4056 11.9163 64.1459 12.7283C64.8862 13.5402 65.2445 14.5671 65.2445 15.8328V21.9462H63.1429V16.1671C63.1429 15.379 62.8802 14.7343 62.3787 14.2089C61.8772 13.6835 61.2324 13.4447 60.492 13.4447C59.6562 13.4447 58.9636 13.7074 58.4382 14.2089C57.9128 14.7343 57.6262 15.379 57.6262 16.1671V21.9462H55.5247V11.7253H57.6262V14.376C57.9128 13.4925 58.3666 12.7999 59.0114 12.2984C59.6801 11.7731 60.4443 11.5104 61.304 11.5104Z" fill="white"/>
<path d="M80.5526 11.5104C81.7706 11.5104 82.7736 11.8208 83.5617 12.4656C84.3259 13.1104 84.7319 14.0178 84.7319 15.2357V21.9462H82.6304V19.2238C82.0094 21.182 80.7437 22.1372 78.8332 22.1372C77.9496 22.1372 77.2092 21.8746 76.6361 21.3492C76.039 20.8238 75.7524 20.1313 75.7524 19.2716C75.7524 18.2686 76.1107 17.5283 76.8032 17.0268C77.5197 16.5253 78.4033 16.2149 79.5019 16.0954L81.484 15.9044C82.2244 15.8328 82.6065 15.4984 82.6065 14.9014C82.6065 14.3999 82.4154 14.0178 82.0333 13.7313C81.6512 13.4447 81.1497 13.3014 80.5526 13.3014C79.9317 13.3014 79.3824 13.4686 78.9526 13.779C78.5227 14.0895 78.2361 14.5671 78.1167 15.188L76.039 14.6865C76.2301 13.7313 76.7316 12.9671 77.5436 12.394C78.3794 11.7969 79.3824 11.5104 80.5526 11.5104ZM79.5257 20.4417C80.3855 20.4417 81.1258 20.1552 81.7229 19.582C82.3199 19.0089 82.6304 18.3163 82.6304 17.5522V17.0029C82.4632 17.2656 82.0811 17.4328 81.4602 17.5044L79.5257 17.7432C79.0242 17.8149 78.6182 17.9581 78.3078 18.1969C77.9973 18.4357 77.854 18.7462 77.854 19.1522C77.854 19.5581 77.9973 19.8686 78.3078 20.1074C78.6182 20.3462 79.0003 20.4417 79.5257 20.4417Z" fill="white"/>
<path d="M93.3533 11.5104C94.5235 11.5104 95.4549 11.9163 96.1952 12.7283C96.9356 13.5402 97.2938 14.5671 97.2938 15.8328V21.9462H95.1922V16.1671C95.1922 15.379 94.9295 14.7343 94.428 14.2089C93.9265 13.6835 93.2817 13.4447 92.5414 13.4447C91.7055 13.4447 91.0129 13.7074 90.4875 14.2089C89.9621 14.7343 89.6756 15.379 89.6756 16.1671V21.9462H87.574V11.7253H89.6756V14.376C89.9621 13.4925 90.4159 12.7999 91.0607 12.2984C91.7294 11.7731 92.4936 11.5104 93.3533 11.5104Z" fill="white"/>
<path d="M108.494 14.6865V7.14026H110.596V21.9701H108.494V18.985C108.184 19.9641 107.658 20.7283 106.942 21.3015C106.225 21.8746 105.39 22.1612 104.434 22.1612C103.121 22.1612 102.022 21.6597 101.139 20.6328C100.255 19.6298 99.8252 18.3641 99.8252 16.8358C99.8252 15.3313 100.255 14.0656 101.139 13.0388C102.022 12.0119 103.121 11.5104 104.434 11.5104C105.39 11.5104 106.225 11.797 106.942 12.3701C107.634 12.9432 108.16 13.7074 108.494 14.6865ZM105.127 20.2029C106.106 20.2029 106.918 19.8925 107.539 19.2477C108.184 18.6029 108.494 17.8149 108.494 16.8358C108.494 15.8567 108.184 15.0447 107.539 14.4238C106.894 13.7791 106.106 13.4686 105.127 13.4686C104.243 13.4686 103.503 13.8029 102.882 14.4477C102.261 15.0925 101.951 15.9044 101.951 16.8597C101.951 17.8149 102.261 18.6029 102.882 19.2477C103.479 19.8925 104.243 20.2029 105.127 20.2029Z" fill="white"/>
<path d="M7.83289 37.0627V30.2567H9.71954V43.6298H7.83289V40.9552C7.54631 41.8388 7.06868 42.5313 6.42387 43.0328C5.77907 43.5343 5.01485 43.797 4.15512 43.797C2.96103 43.797 1.95801 43.3433 1.16991 42.4358C0.381818 41.5284 -0.0241699 40.3821 -0.0241699 39.0209C-0.0241699 37.6597 0.381818 36.5134 1.16991 35.606C1.95801 34.6746 2.96103 34.2209 4.15512 34.2209C5.01485 34.2209 5.77907 34.4836 6.42387 34.9851C7.09256 35.4866 7.54631 36.1791 7.83289 37.0627ZM4.79992 42.0537C5.68354 42.0537 6.39999 41.7672 6.97315 41.194C7.54631 40.6209 7.83289 39.9045 7.83289 39.0209C7.83289 38.1373 7.54631 37.4209 6.97315 36.8239C6.39999 36.2507 5.68354 35.9642 4.79992 35.9642C4.01183 35.9642 3.31926 36.2507 2.76998 36.8478C2.2207 37.4209 1.93412 38.1612 1.93412 39.0209C1.93412 39.8806 2.2207 40.597 2.76998 41.1701C3.34314 41.7672 4.01183 42.0537 4.79992 42.0537Z" fill="white"/>
<path d="M16.1201 34.2208C17.6007 34.2208 18.7948 34.7462 19.7262 35.8208C20.6576 36.8716 21.0397 38.1611 20.8725 39.6656H13.2304C13.3737 40.4059 13.708 41.0268 14.2573 41.4805C14.8066 41.9343 15.4753 42.1731 16.2634 42.1731C16.8604 42.1731 17.4097 42.0298 17.8873 41.7193C18.365 41.4328 18.7232 41.0268 19.0098 40.5253L20.6098 41.2178C20.2038 42.0059 19.6068 42.6268 18.8665 43.1044C18.1023 43.582 17.2425 43.7969 16.2395 43.7969C14.8544 43.7969 13.6842 43.3432 12.7528 42.4357C11.8214 41.5283 11.3438 40.382 11.3438 39.0208C11.3438 37.6596 11.7975 36.5134 12.7289 35.6059C13.6364 34.6746 14.7588 34.2208 16.1201 34.2208ZM16.1201 35.8686C15.4275 35.8686 14.8066 36.0835 14.3051 36.5134C13.8036 36.9432 13.4453 37.4925 13.2782 38.185H18.9381C18.7709 37.4925 18.4366 36.9432 17.9351 36.5134C17.4574 36.0835 16.8365 35.8686 16.1201 35.8686Z" fill="white"/>
<path d="M25.8161 43.0567L28.658 34.4119H30.5924L27.3684 43.6298H24.1205L20.8965 34.3881H22.9503L25.8161 43.0567Z" fill="white"/>
<path d="M35.3447 34.2208C36.8253 34.2208 38.0194 34.7462 38.9508 35.8208C39.8822 36.8716 40.2643 38.1611 40.0971 39.6656H32.455C32.5983 40.4059 32.9326 41.0268 33.4819 41.4805C34.0312 41.9343 34.6999 42.1731 35.488 42.1731C36.085 42.1731 36.6343 42.0298 37.1119 41.7193C37.5896 41.4328 37.9478 41.0268 38.2344 40.5253L39.8344 41.2178C39.4284 42.0059 38.8314 42.6268 38.0911 43.1044C37.3269 43.582 36.4671 43.7969 35.4641 43.7969C34.079 43.7969 32.9088 43.3432 31.9774 42.4357C31.046 41.5283 30.5684 40.382 30.5684 39.0208C30.5684 37.6596 31.0221 36.5134 31.9535 35.6059C32.8371 34.6746 33.9834 34.2208 35.3447 34.2208ZM35.3447 35.8686C34.6521 35.8686 34.0312 36.0835 33.5297 36.5134C33.0282 36.9432 32.6699 37.4925 32.5028 38.185H38.1627C37.9955 37.4925 37.6612 36.9432 37.1597 36.5134C36.6582 36.0835 36.0611 35.8686 35.3447 35.8686Z" fill="white"/>
<path d="M43.6318 43.6298H41.7451V30.2567H43.6318V43.6298Z" fill="white"/>
<path d="M46.6407 42.4357C45.7093 41.5283 45.2317 40.382 45.2317 39.0208C45.2317 37.6596 45.7093 36.5134 46.6407 35.6059C47.5721 34.6746 48.7423 34.2208 50.1274 34.2208C51.5126 34.2208 52.6828 34.6746 53.6141 35.6059C54.5455 36.5372 55.0231 37.6596 55.0231 39.0208C55.0231 40.382 54.5455 41.5283 53.6141 42.4357C52.6828 43.3432 51.5126 43.7969 50.1274 43.7969C48.7423 43.7969 47.5721 43.3432 46.6407 42.4357ZM48.0258 36.8477C47.4527 37.4208 47.1661 38.1611 47.1661 39.0208C47.1661 39.8805 47.4527 40.6208 48.0258 41.194C48.599 41.7671 49.2916 42.0537 50.1274 42.0537C50.9633 42.0537 51.6797 41.7671 52.229 41.194C52.7783 40.6208 53.0649 39.9044 53.0649 39.0208C53.0649 38.1372 52.7783 37.4208 52.229 36.8238C51.6797 36.2507 50.9633 35.9641 50.1274 35.9641C49.2916 35.9641 48.599 36.2507 48.0258 36.8477Z" fill="white"/>
<path d="M62.1638 34.2208C63.3579 34.2208 64.3609 34.6746 65.149 35.6059C65.9371 36.5372 66.3431 37.6596 66.3431 39.0208C66.3431 40.382 65.9371 41.5283 65.149 42.4358C64.3609 43.3432 63.3579 43.7969 62.1638 43.7969C61.304 43.7969 60.5398 43.5343 59.895 43.0328C59.2502 42.5313 58.7726 41.8149 58.486 40.9552V47.2358H56.5994V34.388H58.486V37.0626C58.7726 36.179 59.2502 35.4865 59.895 34.985C60.5398 34.4835 61.304 34.2208 62.1638 34.2208ZM61.5429 42.0537C62.331 42.0537 62.9997 41.7671 63.5489 41.1701C64.0982 40.5969 64.3609 39.8566 64.3609 39.0208C64.3609 38.1611 64.0982 37.4208 63.5489 36.8477C62.9997 36.2746 62.331 35.9641 61.5429 35.9641C60.6592 35.9641 59.9428 36.2507 59.3696 36.8238C58.7965 37.3969 58.5099 38.1372 58.5099 39.0208C58.5099 39.8805 58.7965 40.6208 59.3696 41.194C59.9189 41.7671 60.6592 42.0537 61.5429 42.0537Z" fill="white"/>
<path d="M78.8809 34.2208C79.8362 34.2208 80.6004 34.579 81.2213 35.3193C81.8183 36.0596 82.1288 36.991 82.1288 38.1134V43.6298H80.2422V38.3999C80.2422 37.6835 80.0511 37.1104 79.6451 36.6328C79.263 36.179 78.7615 35.9402 78.1883 35.9402C77.5435 35.9402 76.9943 36.179 76.5883 36.6328C76.1823 37.0865 75.9673 37.6835 75.9673 38.3999V43.6298H74.0807V38.3999C74.0807 37.6835 73.8896 37.1104 73.5075 36.6328C73.1254 36.179 72.6478 35.9402 72.0508 35.9402C71.406 35.9402 70.8567 36.179 70.4507 36.6328C70.0447 37.0865 69.8298 37.6835 69.8298 38.3999V43.6298H67.9431V34.388H69.8298V36.6566C70.0925 35.8925 70.4746 35.2955 70.9761 34.8656C71.4776 34.4357 72.0985 34.2208 72.7672 34.2208C73.5075 34.2208 74.1285 34.4596 74.6777 34.9134C75.2031 35.3671 75.5852 36.0119 75.8002 36.776C76.0151 35.988 76.3972 35.3671 76.9465 34.9134C77.4958 34.4596 78.1406 34.2208 78.8809 34.2208Z" fill="white"/>
<path d="M88.4336 34.2208C89.9142 34.2208 91.1083 34.7462 92.0397 35.8208C92.9711 36.8716 93.3532 38.1611 93.186 39.6656H85.5439C85.6872 40.4059 86.0215 41.0268 86.5708 41.4805C87.1201 41.9343 87.7888 42.1731 88.5768 42.1731C89.1739 42.1731 89.7232 42.0298 90.2008 41.7193C90.6784 41.4328 91.0367 41.0268 91.3232 40.5253L92.9233 41.2178C92.5173 42.0059 91.9203 42.6268 91.1799 43.1044C90.4157 43.582 89.556 43.7969 88.553 43.7969C87.1678 43.7969 85.9976 43.3432 85.0662 42.4357C84.1349 41.5283 83.6572 40.382 83.6572 39.0208C83.6572 37.6596 84.111 36.5134 85.0424 35.6059C85.926 34.6746 87.0723 34.2208 88.4336 34.2208ZM88.4336 35.8686C87.741 35.8686 87.1201 36.0835 86.6186 36.5134C86.117 36.9432 85.7588 37.4925 85.5916 38.185H91.2516C91.0844 37.4925 90.7501 36.9432 90.2486 36.5134C89.747 36.0835 89.1261 35.8686 88.4336 35.8686Z" fill="white"/>
<path d="M100.016 34.2208C101.067 34.2208 101.927 34.579 102.572 35.3193C103.24 36.0596 103.575 36.991 103.575 38.1134V43.6298H101.688V38.3999C101.688 37.6835 101.449 37.1104 100.995 36.6328C100.542 36.179 99.9685 35.9402 99.2998 35.9402C98.5356 35.9402 97.9147 36.179 97.437 36.6328C96.9594 37.0865 96.7206 37.6835 96.7206 38.3999V43.6298H94.8101V34.388H96.6967V36.776C96.9594 35.988 97.3654 35.3671 97.9624 34.8895C98.5595 34.4358 99.2282 34.2208 100.016 34.2208Z" fill="white"/>
<path d="M106.249 36.0835H104.291V34.4119H106.249V31.4029L108.136 30.8059V34.388H110.739V36.0596H108.136V40.3104C108.136 40.8835 108.255 41.2895 108.518 41.5283C108.781 41.791 109.163 41.9104 109.736 41.9104H110.739V43.582H109.736C108.542 43.582 107.658 43.2955 107.109 42.7462C106.536 42.197 106.249 41.3373 106.249 40.191V36.0835Z" fill="white"/>
</g>
<defs>
<clipPath id="clip0">
<rect width="276" height="56" fill="white"/>
</clipPath>
</defs>
</svg>
