<svg width="183" height="187" viewBox="0 0 183 187" fill="none" xmlns="http://www.w3.org/2000/svg">
<path d="M182.971 10.9213C182.924 9.09255 182.648 7.07097 180.951 5.94239C179.01 4.65383 176.773 5.52529 174.61 6.37044C169.414 8.3975 164.155 9.71491 158.059 10.517C156.56 10.7142 155.504 12.09 155.701 13.5901C155.898 15.0897 157.274 16.1467 158.774 15.9484C165.319 15.0879 170.983 13.666 176.602 11.4742C176.802 11.3961 177.142 11.2635 177.496 11.1338C177.604 15.6723 176.409 19.1851 173.842 21.871C169.701 26.2049 161.766 28.5118 150.258 28.7269C148.745 28.7554 147.542 30.0045 147.57 31.5173C147.598 33.0126 148.819 34.2051 150.308 34.2051C150.326 34.2051 150.343 34.2051 150.361 34.2047C156.807 34.0842 162.242 33.3541 166.733 32.0001C166.81 35.7146 165.894 38.6741 163.954 40.9795C162.647 42.5339 160.835 43.821 158.535 44.8396C158.513 44.8495 158.491 44.8583 158.47 44.8689C154.475 46.622 149.013 47.5705 142.131 47.6965C140.618 47.7243 139.415 48.973 139.442 50.4858C139.47 51.9815 140.691 53.1747 142.18 53.1747C142.197 53.1747 142.214 53.1747 142.232 53.1743C148.081 53.0673 153.029 52.4088 157.13 51.1871C156.935 53.8124 156.002 56.2197 154.331 58.3724C150.675 63.0821 144.105 65.7574 138.968 66.409C138.346 65.2585 137.645 64.127 136.865 63.0251C133.353 58.0466 127.95 53.7901 122.408 51.6374C116.351 49.2955 111.318 49.7532 108.597 52.8942C106.069 55.8245 106.183 60.7329 107.275 64.8432C104.982 64.4776 102.65 64.058 100.296 63.5901V42.2713C108.804 40.7735 116.153 36.1441 121.177 29.0552L121.289 28.8986C128.205 19.2958 135.957 17.9586 146.154 17.1182C147.661 16.9941 148.782 15.6708 148.658 14.1631C148.534 12.6554 147.215 11.5312 145.703 11.6583C134.798 12.5572 125.098 14.234 116.843 25.6965L116.707 25.8872C112.721 31.5111 106.97 35.273 100.296 36.6898V29.2656C104.604 26.4036 107.452 21.5073 107.452 15.9561C107.451 7.15789 100.293 0 91.4956 0C82.6923 0 75.5297 7.15789 75.5297 15.9561C75.5297 21.5051 78.3767 26.4 82.6854 29.2623V36.6901C76.037 35.2748 70.2907 31.5191 66.287 25.9044L66.1398 25.6987C57.1251 13.1788 46.6395 12.3749 34.4984 11.4439C26.8485 10.8574 18.1778 10.1923 8.38218 6.37081C6.2167 5.52565 3.97744 4.65164 2.03329 5.94348C0.333117 7.07352 0.0566335 9.09364 0.0102485 10.9169C-0.15082 16.9396 1.58734 21.8984 5.17761 25.6556C6.74629 27.2974 8.64844 28.6962 10.8917 29.8606C10.3559 35.8271 11.6773 40.7508 14.8428 44.5113C16.3133 46.2578 18.1504 47.7352 20.3685 48.9489C20.0935 53.678 21.4638 58.0962 24.3839 61.8297C28.9084 67.6154 36.1186 70.6077 41.7837 71.6216C40.3363 76.1436 40.108 80.7138 41.2362 84.7446C43.0325 91.1625 47.9201 96.1407 55.7613 99.5395L69.9956 105.718C65.6117 108.045 61.9228 110.58 58.9944 113.29C57.884 114.317 57.8165 116.051 58.8443 117.161C59.3844 117.745 60.1186 118.04 60.8556 118.04C61.5211 118.04 62.1884 117.799 62.7154 117.311C66.1329 114.149 70.7962 111.214 76.5867 108.578L84.6084 112.059L78.4994 114.712C69.0815 118.795 64.6497 123.144 64.951 128.006C65.245 132.753 70.118 136.646 79.0425 139.264L84.597 140.895C84.6091 140.899 84.6219 140.902 84.6339 140.906L112.018 148.949C120.906 151.555 126.335 156.892 126.912 163.592C127.361 168.81 124.656 173.796 120.178 175.998C115.713 178.196 112.829 178.164 112.059 177.876C112.085 177.499 112.314 176.346 113.935 174.09C117.477 169.179 118.598 165.033 117.362 161.414C116.186 157.971 112.949 155.443 107.742 153.901L74.4614 144.032C73.7861 143.832 72.2922 143.332 72.1903 143.304C61.4816 139.606 55.7368 133.625 56.7252 127.051C56.9498 125.555 55.9194 124.16 54.4234 123.935C52.9201 123.712 51.5322 124.741 51.3072 126.236C50.1389 134.01 54.7858 140.958 64.0032 145.756C56.1379 149.525 51.2444 155.753 50.6093 163.122C49.9668 170.572 53.8946 177.722 60.3826 180.914C63.3743 182.386 66.8393 183.497 69.8119 183.497C71.9982 183.497 73.9194 182.896 75.19 181.395C76.6334 179.69 77.5104 176.484 73.488 170.885C71.0954 167.568 70.1925 164.977 70.8039 163.188C71.5132 161.111 74.4581 159.848 76.8051 159.153L82.685 157.41V178.19C82.685 183.048 86.6372 187 91.4952 187C96.3474 187 100.295 183.048 100.295 178.19V157.407L106.186 159.154C108.528 159.847 111.469 161.109 112.177 163.184C112.789 164.975 111.885 167.566 109.489 170.889C105.47 176.484 106.347 179.691 107.79 181.395C109.061 182.897 110.981 183.498 113.168 183.498C116.141 183.498 119.606 182.386 122.597 180.914C129.085 177.723 133.013 170.573 132.371 163.122C131.734 155.736 126.819 149.496 118.922 145.729C126.733 141.573 131.233 135.72 131.504 129.091C131.851 120.598 125.292 112.242 113.289 105.589L127.228 99.5399C135.066 96.1407 139.95 91.1636 141.745 84.7468C142.874 80.7109 142.644 76.1349 141.193 71.6089C146.903 70.5592 154.161 67.5255 158.658 61.7322C161.534 58.0261 162.883 53.6425 162.611 48.9515C164.834 47.7363 166.674 46.2564 168.146 44.5065C171.31 40.7457 172.629 35.8234 172.09 29.8602C174.333 28.6962 176.235 27.2974 177.803 25.656C181.393 21.8988 183.132 16.94 182.971 10.9213ZM75.2499 153.901C70.0369 155.444 66.7969 157.972 65.6201 161.417C64.3842 165.035 65.5047 169.181 69.0424 174.086C70.6655 176.346 70.8952 177.499 70.9215 177.876C70.1516 178.164 67.2677 178.196 62.8019 175.999C58.3249 173.796 55.6189 168.81 56.0685 163.592C56.6459 156.893 62.0748 151.555 70.9752 148.945L71.4051 148.817C71.8974 148.977 81.8611 151.941 81.8611 151.941L75.2499 153.901ZM94.8167 178.191C94.8167 180.028 93.3269 181.522 91.4956 181.522C89.6585 181.522 88.1639 180.028 88.1639 178.191V155.787L91.4967 154.799L94.8167 155.783V178.191ZM109.928 70.7801C111.337 72.7298 113.665 74.8909 117.452 76.1685C121.306 77.4687 122.365 78.75 122.387 79.2463C122.439 80.4231 119.605 83.3534 113.143 86.1851L100.295 91.817V69.1797C103.566 69.8112 106.789 70.3444 109.928 70.7801ZM91.4956 5.47854C97.2725 5.47854 101.973 10.1788 101.973 15.9561C101.973 21.7388 97.2729 26.4438 91.4956 26.4438C85.7128 26.4438 81.0082 21.7388 81.0082 15.9561C81.0082 10.1788 85.7128 5.47854 91.4956 5.47854ZM91.4956 31.922C92.6344 31.922 93.7447 31.7996 94.8167 31.5717V39.8856V39.8962V65.8126V65.8308V94.2188L91.489 95.6775L88.1639 94.2199V65.8264C88.1639 65.821 88.1639 65.8155 88.1639 65.81V39.8962C88.1639 39.8925 88.1639 39.8892 88.1639 39.8856V31.5699C89.2392 31.7989 90.3531 31.922 91.4956 31.922ZM73.0527 70.7794C76.2273 70.3393 79.4512 69.8079 82.6854 69.1822V91.8181L69.8382 86.1858C63.3808 83.353 60.5492 80.4216 60.601 79.2448C60.623 78.7492 61.681 77.4683 65.5262 76.1696C69.3112 74.8967 71.6392 72.7356 73.0527 70.7794ZM28.6999 58.4549C26.9972 56.2777 26.0472 53.8427 25.8521 51.1867C29.9526 52.4091 34.9016 53.0677 40.7508 53.175C40.768 53.1754 40.7852 53.1754 40.8023 53.1754C42.2918 53.1754 43.5128 51.9815 43.5401 50.4865C43.5675 48.9737 42.3641 47.725 40.8516 47.6972C29.9574 47.4978 22.6172 45.2392 19.0354 40.9838C17.0945 38.6777 16.177 35.7175 16.2519 32.0012C20.7418 33.3548 26.1768 34.0842 32.6214 34.2051C32.639 34.2054 32.6565 34.2054 32.674 34.2054C34.1631 34.2054 35.3837 33.0122 35.4118 31.5177C35.4399 30.0049 34.2365 28.7557 32.7244 28.7273C21.2158 28.5121 13.2811 26.2057 9.13968 21.8714C6.57317 19.1855 5.37775 15.6723 5.48623 11.1306C5.84453 11.261 6.18931 11.3957 6.39165 11.4746C16.9459 15.5926 26.0483 16.2906 34.0791 16.9064C45.7411 17.8005 54.1667 18.4466 61.7019 28.9113L61.8264 29.0852C66.8699 36.158 74.2105 40.7768 82.6854 42.272V63.593C80.3508 64.0583 78.0206 64.4773 75.7076 64.8451C76.7992 60.7376 76.9143 55.8274 74.3854 52.8964C71.6728 49.7495 66.6413 49.2915 60.5817 51.6392C55.0378 53.7886 49.6305 58.0455 46.1169 63.0262C45.336 64.1296 44.6337 65.2629 44.0113 66.4148C38.9272 65.8078 32.3884 63.1716 28.6999 58.4549ZM94.8167 116.491V136.235L91.4934 137.211L88.1639 136.234V116.489L91.4879 115.046L94.8167 116.491ZM102.301 119.739C110.021 123.086 112.663 126.03 112.561 127.668C112.456 129.371 109.271 131.991 102.394 134.008L100.295 134.625V118.868L102.301 119.739ZM70.4193 127.668C70.3181 126.029 72.9599 123.086 80.6806 119.739L82.6854 118.868V134.624L80.586 134.008C73.7094 131.991 70.5249 129.37 70.4193 127.668ZM126.03 128.868C125.795 134.619 120.493 139.764 111.441 143.064L101.218 140.064L103.937 139.265C112.863 136.647 117.735 132.754 118.03 128.007C118.331 123.144 113.899 118.795 104.482 114.713L57.9418 94.5135C51.6878 91.8027 47.8423 88.0193 46.5124 83.2683C45.0909 78.1889 46.6158 71.8035 50.5914 66.1873C50.5925 66.1862 50.5932 66.1847 50.5943 66.1836C53.5104 62.0495 57.9841 58.5217 62.562 56.7471C66.054 55.3942 69.2096 55.2814 70.2371 56.4739C71.5574 58.0042 70.9891 63.3717 69.1563 66.7187C68.3974 68.0916 66.8484 69.9445 63.7771 70.9774C58.189 72.8638 55.2788 75.5647 55.128 79.0038C54.8891 84.4451 61.799 88.6409 67.638 91.2023L104.626 107.418C118.331 113.424 126.333 121.443 126.03 128.868ZM136.47 83.2708C135.141 88.0211 131.298 91.8035 125.048 94.5143L106.849 102.412C106.841 102.408 106.833 102.405 106.825 102.401L98.3113 98.6684L115.342 91.2027C121.184 88.6427 128.099 84.4487 127.86 79.006C127.709 75.5655 124.796 72.8645 119.202 70.9774C116.131 69.9412 114.583 68.0898 113.83 66.7293C111.992 63.3717 111.424 58.0042 112.74 56.4782C113.79 55.2675 116.88 55.3756 120.427 56.7467C125 58.5228 129.471 62.051 132.39 66.1877C136.366 71.8046 137.891 78.1908 136.47 83.2708Z" fill="url(#paint0_linear)"/>
<defs>
<linearGradient id="paint0_linear" x1="0" y1="0" x2="221.625" y2="80.1675" gradientUnits="userSpaceOnUse">
<stop stop-color="#36849A"/>
<stop offset="1" stop-color="#61B8C4"/>
</linearGradient>
</defs>
</svg>
