<svg width="240" height="176" viewBox="0 0 240 176" fill="none" xmlns="http://www.w3.org/2000/svg">
<path d="M240 124V4C240 2.93913 239.579 1.92172 238.828 1.17157C238.078 0.421428 237.061 0 236 0H4C2.93913 0 1.92172 0.421428 1.17157 1.17157C0.421427 1.92172 0 2.93913 0 4V34.5H8V13.6565L16 21.6565V154.344L8 162.344V44H0V172C0 173.061 0.421427 174.078 1.17157 174.828C1.92172 175.579 2.93913 176 4 176H236C237.061 176 238.078 175.579 238.828 174.828C239.579 174.078 240 173.061 240 172V132H232V162.344L224 154.344V21.6565L232 13.6565V124H240ZM21.6565 160H218.344L226.344 168H13.6565L21.6565 160ZM24 152V24H216V152H24ZM218.344 16H21.6565L13.6565 8H226.344L218.344 16Z" fill="url(#paint0_linear)"~/>
<path d="M75.9611 111.732C76.1573 110.15 75.99 108.543 75.4718 107.035C74.9535 105.527 74.0981 104.157 72.9705 103.03C71.843 101.902 70.473 101.047 68.965 100.528C67.457 100.01 65.8506 99.8428 64.2681 100.039C63.2877 98.781 62.0332 97.7633 60.6001 97.0633C59.167 96.3634 57.593 95.9997 55.9981 96C54.4032 96.0003 52.8294 96.3645 51.3965 97.065C49.9636 97.7655 48.7095 98.7837 47.7296 100.042C45.9453 99.7934 44.1269 100.029 42.4651 100.725L45.5351 108.112C45.8778 107.969 46.2513 107.917 46.62 107.96C46.9888 108.003 47.3403 108.14 47.6411 108.357C48.1824 108.699 48.798 108.906 49.4359 108.96C50.0738 109.015 50.7155 108.915 51.307 108.67C51.8985 108.426 52.4226 108.042 52.8352 107.553C53.2478 107.063 53.5369 106.482 53.6781 105.857C53.7971 105.33 54.0918 104.859 54.5138 104.522C54.9357 104.185 55.4599 104.001 56.0001 104.001C56.5403 104.001 57.0644 104.185 57.4864 104.522C57.9084 104.859 58.2031 105.33 58.3221 105.857C58.4633 106.482 58.7523 107.063 59.165 107.553C59.5776 108.042 60.1017 108.426 60.6933 108.671C61.2849 108.916 61.9267 109.015 62.5647 108.961C63.2027 108.906 63.8182 108.699 64.3596 108.357C64.8163 108.068 65.3577 107.944 65.8947 108.004C66.4317 108.063 66.9324 108.304 67.3144 108.686C67.6965 109.068 67.9372 109.569 67.997 110.106C68.0568 110.643 67.9322 111.184 67.6436 111.641C67.3017 112.182 67.0947 112.798 67.0401 113.436C66.9855 114.074 67.0849 114.716 67.3299 115.307C67.5748 115.899 67.9582 116.423 68.4479 116.836C68.9375 117.248 69.519 117.537 70.1436 117.679C70.6705 117.798 71.1413 118.092 71.4786 118.514C71.8159 118.936 71.9996 119.46 71.9996 120.001C71.9996 120.541 71.8159 121.065 71.4786 121.487C71.1413 121.909 70.6705 122.204 70.1436 122.323C69.519 122.464 68.9375 122.753 68.4479 123.165C67.9582 123.578 67.5748 124.102 67.3299 124.694C67.0849 125.285 66.9855 125.927 67.0401 126.565C67.0947 127.203 67.3017 127.819 67.6436 128.36C67.9322 128.817 68.0568 129.358 67.997 129.895C67.9372 130.432 67.6965 130.933 67.3144 131.315C66.9324 131.697 66.4317 131.938 65.8947 131.998C65.3577 132.057 64.8163 131.933 64.3596 131.644C63.8182 131.302 63.2027 131.095 62.5647 131.041C61.9267 130.986 61.2849 131.085 60.6933 131.33C60.1017 131.575 59.5776 131.959 59.165 132.448C58.7523 132.938 58.4633 133.52 58.3221 134.144C58.2031 134.671 57.9084 135.142 57.4864 135.479C57.0644 135.816 56.5403 136 56.0001 136C55.4599 136 54.9357 135.816 54.5138 135.479C54.0918 135.142 53.7971 134.671 53.6781 134.144C53.5369 133.52 53.2478 132.938 52.8352 132.448C52.4226 131.959 51.8984 131.575 51.3068 131.33C50.7152 131.085 50.0735 130.986 49.4355 131.041C48.7975 131.095 48.182 131.302 47.6406 131.644C47.1838 131.932 46.6426 132.056 46.1059 131.996C45.5692 131.936 45.0689 131.696 44.687 131.314C44.3051 130.932 44.0644 130.431 44.0044 129.895C43.9443 129.358 44.0685 128.817 44.3566 128.36C44.6985 127.819 44.9055 127.203 44.96 126.565C45.0146 125.927 44.9153 125.285 44.6703 124.694C44.4253 124.102 44.0419 123.578 43.5523 123.165C43.0627 122.753 42.4811 122.464 41.8566 122.323C41.3297 122.204 40.8589 121.909 40.5216 121.487C40.1843 121.065 40.0006 120.541 40.0006 120.001C40.0006 119.46 40.1843 118.936 40.5216 118.514C40.8589 118.092 41.3297 117.798 41.8566 117.679C42.4811 117.537 43.0627 117.248 43.5523 116.836C44.0419 116.423 44.4253 115.899 44.6703 115.307C44.9153 114.716 45.0146 114.074 44.96 113.436C44.9055 112.798 44.6985 112.182 44.3566 111.641C44.1392 111.34 44.0026 110.989 43.9598 110.62C43.917 110.252 43.9695 109.878 44.1121 109.536L36.7251 106.465C36.0291 108.127 35.7931 109.945 36.0421 111.73C34.7837 112.709 33.7655 113.964 33.065 115.396C32.3645 116.829 32.0003 118.403 32 119.998C31.9997 121.593 32.3634 123.167 33.0633 124.6C33.7633 126.033 34.781 127.288 36.0391 128.268C35.8428 129.851 36.0102 131.457 36.5284 132.965C37.0466 134.473 37.9021 135.843 39.0296 136.971C40.1572 138.098 41.5271 138.954 43.0352 139.472C44.5432 139.99 46.1496 140.157 47.7321 139.961C48.7122 141.219 49.9664 142.236 51.3992 142.936C52.8319 143.636 54.4055 144 56.0001 144C57.5947 144 59.1682 143.636 60.601 142.936C62.0337 142.236 63.2879 141.219 64.2681 139.961C65.8506 140.157 67.457 139.99 68.965 139.472C70.473 138.954 71.843 138.098 72.9705 136.971C74.0981 135.843 74.9535 134.473 75.4718 132.965C75.99 131.457 76.1573 129.851 75.9611 128.268C77.2189 127.288 78.2364 126.034 78.9363 124.601C79.6363 123.168 80.0001 121.595 80.0001 120C80.0001 118.406 79.6363 116.832 78.9363 115.399C78.2364 113.966 77.2189 112.712 75.9611 111.732Z" fill="url(#paint1_linear)"~/>
<path d="M108 36H116V52H108V36Z" fill="url(#paint2_linear)"~/>
<path d="M92 36H100V52H92V36Z" fill="url(#paint3_linear)"~/>
<path d="M76 36H84V52H76V36Z" fill="url(#paint4_linear)"~/>
<path d="M156 36H164V52H156V36Z" fill="url(#paint5_linear)"~/>
<path d="M140 36H148V52H140V36Z" fill="url(#paint6_linear)"~/>
<path d="M124 36H132V52H124V36Z" fill="url(#paint7_linear)"~/>
<path d="M68 64H172V72H68V64Z" fill="url(#paint8_linear)"~/>
<path d="M76 80H164V88H76V80Z" fill="url(#paint9_linear)"~/>
<path d="M104 96H160V104H104V96Z" fill="url(#paint10_linear)"~/>
<path d="M80 96H96V104H80V96Z" fill="url(#paint11_linear)"~/>
<path d="M96 112H144V120H96V112Z" fill="url(#paint12_linear)"~/>
<path d="M179.6 126.953C179.01 126.011 178.181 125.241 177.197 124.723C176.214 124.204 175.111 123.955 174 124C170.153 124 166.7 126.694 164.014 129.77C161.756 124.83 158.159 124 156 124C147.936 124 141.609 135.838 140.422 138.211L147.576 141.793C150.105 136.759 154.199 132 155.996 131.988C157.061 132.577 157.988 136.889 158 140C158 140.901 158.304 141.775 158.863 142.482C159.421 143.188 160.202 143.685 161.079 143.893C161.955 144.1 162.876 144.006 163.693 143.624C164.509 143.243 165.172 142.598 165.576 141.793C167.526 137.913 170.405 134.196 172.452 132.697C171.973 134.601 171.292 136.45 170.422 138.211C170.117 138.821 169.973 139.499 170.004 140.18C170.035 140.861 170.239 141.523 170.597 142.103C170.956 142.683 171.457 143.162 172.052 143.494C172.648 143.826 173.318 144 174 144H192V136H179.891C180.8 132.847 181.131 129.431 179.6 126.953Z" fill="url(#paint13_linear)"~/>
<path d="M200 136H208V144H200V136Z" fill="url(#paint14_linear)"~/>
<path d="M32 36H40V44H32V36Z" fill="url(#paint15_linear)"~/>
<path d="M32 52H40V84H32V52Z" fill="url(#paint16_linear)"~/>
<defs>
<linearGradient id="paint0_linear" x1="0" y1="0" x2="262.114" y2="132.131" gradientUnits="userSpaceOnUse">
<stop stop-color="#36849A"~/>
<stop offset="1" stop-color="#61B8C4"~/>
</linearGradient>
<linearGradient id="paint1_linear" x1="32" y1="96" x2="89.8401" y2="117.382" gradientUnits="userSpaceOnUse">
<stop stop-color="#36849A"~/>
<stop offset="1" stop-color="#61B8C4"~/>
</linearGradient>
<linearGradient id="paint2_linear" x1="108" y1="36" x2="118.595" y2="37.9584" gradientUnits="userSpaceOnUse">
<stop stop-color="#36849A"~/>
<stop offset="1" stop-color="#61B8C4"~/>
</linearGradient>
<linearGradient id="paint3_linear" x1="92" y1="36" x2="102.595" y2="37.9584" gradientUnits="userSpaceOnUse">
<stop stop-color="#36849A"~/>
<stop offset="1" stop-color="#61B8C4"~/>
</linearGradient>
<linearGradient id="paint4_linear" x1="76" y1="36" x2="86.5954" y2="37.9584" gradientUnits="userSpaceOnUse">
<stop stop-color="#36849A"~/>
<stop offset="1" stop-color="#61B8C4"~/>
</linearGradient>
<linearGradient id="paint5_linear" x1="156" y1="36" x2="166.595" y2="37.9584" gradientUnits="userSpaceOnUse">
<stop stop-color="#36849A"~/>
<stop offset="1" stop-color="#61B8C4"~/>
</linearGradient>
<linearGradient id="paint6_linear" x1="140" y1="36" x2="150.595" y2="37.9584" gradientUnits="userSpaceOnUse">
<stop stop-color="#36849A"~/>
<stop offset="1" stop-color="#61B8C4"~/>
</linearGradient>
<linearGradient id="paint7_linear" x1="124" y1="36" x2="134.595" y2="37.9584" gradientUnits="userSpaceOnUse">
<stop stop-color="#36849A"~/>
<stop offset="1" stop-color="#61B8C4"~/>
</linearGradient>
<linearGradient id="paint8_linear" x1="68" y1="64" x2="73.9119" y2="92.4107" gradientUnits="userSpaceOnUse">
<stop stop-color="#36849A"~/>
<stop offset="1" stop-color="#61B8C4"~/>
</linearGradient>
<linearGradient id="paint9_linear" x1="76" y1="80" x2="82.8736" y2="107.951" gradientUnits="userSpaceOnUse">
<stop stop-color="#36849A"~/>
<stop offset="1" stop-color="#61B8C4"~/>
</linearGradient>
<linearGradient id="paint10_linear" x1="104" y1="96" x2="113.966" y2="121.789" gradientUnits="userSpaceOnUse">
<stop stop-color="#36849A"~/>
<stop offset="1" stop-color="#61B8C4"~/>
</linearGradient>
<linearGradient id="paint11_linear" x1="80" y1="96" x2="94.1694" y2="106.476" gradientUnits="userSpaceOnUse">
<stop stop-color="#36849A"~/>
<stop offset="1" stop-color="#61B8C4"~/>
</linearGradient>
<linearGradient id="paint12_linear" x1="96" y1="112" x2="107.106" y2="136.634" gradientUnits="userSpaceOnUse">
<stop stop-color="#36849A"~/>
<stop offset="1" stop-color="#61B8C4"~/>
</linearGradient>
<linearGradient id="paint13_linear" x1="140.422" y1="123.995" x2="177.441" y2="159.276" gradientUnits="userSpaceOnUse">
<stop stop-color="#36849A"~/>
<stop offset="1" stop-color="#61B8C4"~/>
</linearGradient>
<linearGradient id="paint14_linear" x1="200" y1="136" x2="209.64" y2="139.564" gradientUnits="userSpaceOnUse">
<stop stop-color="#36849A"~/>
<stop offset="1" stop-color="#61B8C4"~/>
</linearGradient>
<linearGradient id="paint15_linear" x1="32" y1="36" x2="41.64" y2="39.5636" gradientUnits="userSpaceOnUse">
<stop stop-color="#36849A"~/>
<stop offset="1" stop-color="#61B8C4"~/>
</linearGradient>
<linearGradient id="paint16_linear" x1="32" y1="52" x2="42.8646" y2="53.0041" gradientUnits="userSpaceOnUse">
<stop stop-color="#36849A"~/>
<stop offset="1" stop-color="#61B8C4"~/>
</linearGradient>
</defs>
</svg>
